<?xml version="1.0" encoding="UTF-8" standalone="no"?>
<!-- Created with Inkscape (http://www.inkscape.org/) -->

<svg
   width="297mm"
   height="210mm"
   viewBox="0 0 297 210"
   version="1.1"
   id="svg5"
   inkscape:version="1.3 (0e150ed6c4, 2023-07-21)"
   sodipodi:docname="devops-small.svg"
   xmlns:inkscape="http://www.inkscape.org/namespaces/inkscape"
   xmlns:sodipodi="http://sodipodi.sourceforge.net/DTD/sodipodi-0.dtd"
   xmlns="http://www.w3.org/2000/svg"
   xmlns:svg="http://www.w3.org/2000/svg">
  <sodipodi:namedview
     id="namedview7"
     pagecolor="#ffffff"
     bordercolor="#000000"
     borderopacity="0.25"
     inkscape:showpageshadow="2"
     inkscape:pageopacity="0.0"
     inkscape:pagecheckerboard="0"
     inkscape:deskcolor="#d1d1d1"
     inkscape:document-units="mm"
     showgrid="false"
     inkscape:zoom="0.73584456"
     inkscape:cx="195.01401"
     inkscape:cy="520.49036"
     inkscape:window-width="3840"
     inkscape:window-height="2066"
     inkscape:window-x="-11"
     inkscape:window-y="-11"
     inkscape:window-maximized="1"
     inkscape:current-layer="layer1" />
  <defs
     id="defs2">
    <clipPath
       clipPathUnits="userSpaceOnUse"
       id="clipEmfPath1">
      <path
         d="M 0,0 L 480.34016,0 L 480.34016,271.96724 L 0,271.96724 z"
         id="path2314" />
    </clipPath>
    <pattern
       id="EMFhbasepattern"
       patternUnits="userSpaceOnUse"
       width="6"
       height="6"
       x="0"
       y="0" />
    <clipPath
       clipPathUnits="userSpaceOnUse"
       id="clipEmfPath1-3">
      <path
         d="M 0,0 L 481.01669,0 L 481.01669,236.11087 L 0,236.11087 z"
         id="path3578" />
    </clipPath>
    <pattern
       id="EMFhbasepattern-5"
       patternUnits="userSpaceOnUse"
       width="6"
       height="6"
       x="0"
       y="0" />
  </defs>
  <g
     inkscape:label="Layer 1"
     inkscape:groupmode="layer"
     id="layer1">
    <path
       style="fill:#000000;stroke-width:0.8;stroke-dasharray:none"
       d="m 78.025424,101.75666 c 156.410406,0 156.769976,0 156.769976,0"
       id="path114" />
    <path
       id="path2569"
       style="fill:#2fa5ff;fill-opacity:1;stroke:#000000;stroke-width:0.8;fill-rule:nonzero;stroke-dasharray:none"
       d="m 162.91215,101.91557 c 23.09604,-26.181108 31.24076,-28.924038 39.18403,-28.924038 15.88655,0 28.76514,12.87859 28.76513,28.765138 0,15.88654 -12.87859,28.76513 -28.76513,28.76513 -7.94327,0 -15.13456,-3.21965 -20.34002,-8.42511 L 127.41477,63.873372 c -9.69518,-9.695184 -23.08895,-15.691777 -37.883301,-15.691776 -29.588691,3e-6 -53.575063,23.986376 -53.575061,53.575064 10e-7,29.58869 23.986372,53.57506 53.575061,53.57506 14.794351,0 26.948641,-4.7889 56.187001,-35.45972 l -16.9712,-18.21068 c -22.9689,25.54548 -31.272529,28.86047 -39.215801,28.86047 -15.886543,0 -28.76513,-12.87859 -28.765132,-28.76513 -4e-6,-15.886548 12.878585,-28.765138 28.765132,-28.765138 7.943274,0 15.134561,3.21965 20.340031,8.42511 l 27.17069,29.111658 27.17069,29.11167 c 9.69519,9.69518 23.08895,15.69177 37.8833,15.69177 29.58869,0 53.57506,-23.98637 53.57506,-53.57506 0,-29.588688 -23.98637,-53.575074 -53.57506,-53.575074 -14.79435,0 -28.28346,4.916026 -56.12346,35.459736 z"
       sodipodi:nodetypes="csssccsssccssscccssscc" />
    <path
       style="fill:#ffe50e;fill-opacity:1;stroke:#000000;stroke-width:0.8;stroke-dasharray:none;stroke-opacity:1"
       d="M 75.217957,76.947912 63.551098,70.103122 61.544837,56.346695 c -1.502299,0.834386 -2.545451,1.557387 -3.580286,2.350955 l 2.006262,13.756442 11.509067,6.72028 c 1.185084,-0.85426 2.386855,-1.56731 3.738077,-2.22646 z"
       id="path2826-8"
       sodipodi:nodetypes="ccccccc" />
    <path
       style="fill:#ffe50e;fill-opacity:1;stroke:#000000;stroke-width:0.8;stroke-dasharray:none;stroke-opacity:1"
       d="m 60.89652,105.32156 -10.726365,8.24087 -13.502494,-3.30865 c 0.208886,1.70571 0.487048,2.94408 0.833734,4.20124 l 13.502495,3.30864 10.551703,-8.1414 c -0.346469,-1.41921 -0.555824,-2.80083 -0.659073,-4.3007 z"
       id="path2826-8-4"
       sodipodi:nodetypes="ccccccc" />
    <path
       style="fill:#ffe50e;fill-opacity:1;stroke:#000000;stroke-width:0.8;stroke-dasharray:none;stroke-opacity:1"
       d="m 78.718267,128.18239 1.196727,13.47348 -10.038424,9.61741 c 1.551345,0.7392 2.745546,1.16908 3.992383,1.55124 l 10.038425,-9.61741 -1.206553,-13.27271 c -1.38345,-0.4693 -2.661562,-1.03422 -3.982563,-1.752 z"
       id="path2826-8-4-6"
       sodipodi:nodetypes="ccccccc" />
    <path
       style="fill:#ffe50e;fill-opacity:1;stroke:#000000;stroke-width:0.8;stroke-dasharray:none;stroke-opacity:1"
       d="m 207.15025,48.340315 3.92171,12.945547 -7.86402,11.463932 c 1.66959,0.406963 2.92639,0.584067 4.22497,0.703678 l 7.86402,-11.463953 -3.89034,-12.746993 c -1.45013,-0.177033 -2.81663,-0.46919 -4.25633,-0.9022 z"
       id="path2826-8-4-6-4"
       sodipodi:nodetypes="ccccccc" />
    <path
       style="fill:#ffe50e;fill-opacity:1;stroke:#000000;stroke-width:0.8;stroke-dasharray:none;stroke-opacity:1"
       d="m 252.53878,84.293184 -9.35553,9.769387 -13.84771,-1.226913 c 0.46462,1.654472 0.92703,2.836441 1.46002,4.026643 l 13.84773,1.226908 9.1979,-9.644632 c -0.55729,-1.350394 -0.97328,-2.684453 -1.30241,-4.151384 z"
       id="path2826-8-4-6-4-7"
       sodipodi:nodetypes="ccccccc" />
    <path
       style="fill:#ffe50e;fill-opacity:1;stroke:#000000;stroke-width:0.8;stroke-dasharray:none;stroke-opacity:1"
       d="m 247.4204,130.35892 -13.3967,-1.86956 -7.1085,-11.94712 c -1.06972,1.34494 -1.7576,2.41157 -2.41084,3.54025 l 7.10851,11.94713 13.2033,1.81477 c 0.76892,-1.24213 1.60729,-2.36012 2.60422,-3.48545 z"
       id="path2826-8-4-6-4-7-7"
       sodipodi:nodetypes="ccccccc" />
    <path
       style="fill:#ffe50e;fill-opacity:1;stroke:#000000;stroke-width:0.8;stroke-dasharray:none;stroke-opacity:1"
       d="m 178.53539,149.76602 0.59116,-13.51359 11.21943,-8.20906 c -1.44028,-0.93741 -2.56732,-1.52107 -3.75285,-2.06438 l -11.21944,8.20908 -0.55495,13.31586 c 1.30943,0.64772 2.50187,1.37633 3.71663,2.26209 z"
       id="path2826-8-4-6-4-7-7-8"
       sodipodi:nodetypes="ccccccc" />
    <path
       style="fill:#ffe50e;fill-opacity:1;stroke:#000000;stroke-width:0.8;stroke-dasharray:none;stroke-opacity:1"
       d="m 128.98119,101.68339 3.96708,-12.931704 12.92192,-5.12724 c -1.15861,-1.26918 -2.10287,-2.11725 -3.11389,-2.94097 l -12.92193,5.12726 -3.88236,12.749415 c 1.10473,0.95589 2.07588,1.960699 3.02916,3.123219 z"
       id="path2826-8-4-6-4-7-7-8-5"
       sodipodi:nodetypes="ccccccc" />
    <path
       style="fill:#ffe50e;fill-opacity:1;stroke:#000000;stroke-width:0.8;stroke-dasharray:none;stroke-opacity:1"
       d="m 107.17396,78.820452 1.20469,-13.47276 11.58089,-7.690743 c -1.39621,-1.001858 -2.49556,-1.636133 -3.65513,-2.232806 l -11.5809,7.690739 -1.15953,13.2769 c 1.27865,0.70657 2.43676,1.48854 3.60998,2.42867 z"
       id="path2826-8-2"
       sodipodi:nodetypes="ccccccc" />
    <path
       d="m 77.961254,64.611316 q 0,0.172254 -0.01378,0.296278 -0.0069,0.117133 -0.02756,0.206705 -0.02067,0.08268 -0.05512,0.144694 -0.03445,0.06201 -0.110243,0.144694 -0.07579,0.07579 -0.296278,0.199815 -0.213596,0.124024 -0.530544,0.241157 -0.310059,0.110243 -0.71658,0.186035 -0.39963,0.07579 -0.868163,0.07579 -0.916395,0 -1.653645,-0.282498 -0.73725,-0.282497 -1.254014,-0.840602 -0.516763,-0.564996 -0.792371,-1.405598 -0.275607,-0.840603 -0.275607,-1.956813 0,-1.136881 0.303168,-2.018825 0.303168,-0.881944 0.847493,-1.48139 0.544324,-0.599446 1.302245,-0.909504 0.764811,-0.310059 1.681205,-0.310059 0.37207,0 0.71658,0.06201 0.344509,0.06201 0.633897,0.165364 0.296278,0.09646 0.530544,0.227377 0.234266,0.130913 0.323839,0.227376 0.09646,0.08957 0.130913,0.151584 0.03445,0.06201 0.05512,0.158474 0.02067,0.09646 0.02756,0.227376 0.01378,0.130914 0.01378,0.323839 0,0.206706 -0.01378,0.351399 -0.01378,0.144694 -0.04823,0.234267 -0.03445,0.08957 -0.08268,0.130913 -0.04823,0.04134 -0.110243,0.04134 -0.103353,0 -0.261827,-0.117133 -0.158474,-0.124023 -0.413411,-0.268717 -0.248047,-0.151584 -0.599446,-0.268717 -0.34451,-0.124024 -0.826823,-0.124024 -0.530544,0 -0.950845,0.220486 -0.413411,0.213596 -0.70969,0.620117 -0.289387,0.399631 -0.440971,0.971516 -0.151585,0.571886 -0.151585,1.288465 0,0.785481 0.158475,1.364257 0.165364,0.571885 0.461642,0.943955 0.303168,0.372071 0.72347,0.558106 0.427191,0.179144 0.957736,0.179144 0.482313,0 0.833712,-0.110243 0.3514,-0.117133 0.599446,-0.254936 0.254937,-0.137804 0.413412,-0.248047 0.165364,-0.110243 0.254936,-0.110243 0.0689,0 0.110243,0.02756 0.04134,0.02756 0.0689,0.110243 0.02756,0.08268 0.04134,0.234266 0.01378,0.144694 0.01378,0.392741 z m 7.41384,-2.018825 q 0,0.785481 -0.206706,1.433159 -0.206705,0.647677 -0.627007,1.11621 -0.420301,0.468533 -1.054198,0.723469 -0.633897,0.254937 -1.48139,0.254937 -0.819932,0 -1.426269,-0.227376 -0.606336,-0.227376 -1.005967,-0.661458 -0.399631,-0.434081 -0.592556,-1.067979 -0.192925,-0.633897 -0.192925,-1.446939 0,-0.785481 0.206706,-1.433158 0.213595,-0.654568 0.633897,-1.116211 0.420301,-0.468532 1.047308,-0.723469 0.633897,-0.254937 1.48139,-0.254937 0.826822,0 1.433159,0.227376 0.606336,0.220486 0.999077,0.654568 0.399631,0.434082 0.592556,1.067979 0.192925,0.633897 0.192925,1.453829 z m -1.784558,0.0689 q 0,-0.454752 -0.07579,-0.833713 -0.0689,-0.38585 -0.241157,-0.668348 -0.172254,-0.282497 -0.461642,-0.440972 -0.282498,-0.158474 -0.71658,-0.158474 -0.38585,0 -0.675238,0.144694 -0.289388,0.137804 -0.475423,0.413411 -0.186035,0.268717 -0.282497,0.654568 -0.08957,0.37896 -0.08957,0.868163 0,0.454753 0.07579,0.840603 0.07579,0.37896 0.241157,0.661458 0.172254,0.282497 0.461642,0.440972 0.289388,0.151584 0.71658,0.151584 0.39274,0 0.682128,-0.137804 0.289388,-0.144694 0.475423,-0.413411 0.186035,-0.268717 0.275607,-0.647678 0.08957,-0.38585 0.08957,-0.875053 z m 8.984802,3.066133 q 0,0.07579 -0.03445,0.130913 -0.03445,0.04823 -0.117133,0.08268 -0.08268,0.03445 -0.227376,0.04823 -0.137804,0.01378 -0.344509,0.01378 -0.220486,0 -0.35829,-0.01378 -0.137804,-0.01378 -0.227376,-0.04823 -0.08268,-0.03445 -0.124023,-0.08268 -0.03445,-0.05512 -0.03445,-0.130913 v -0.682129 q -0.475423,0.509874 -0.999077,0.792372 -0.516764,0.282497 -1.150661,0.282497 -0.702799,0 -1.192002,-0.268717 -0.482314,-0.275607 -0.792372,-0.73725 -0.303168,-0.461642 -0.440972,-1.074869 -0.137804,-0.620117 -0.137804,-1.302245 0,-0.819932 0.172255,-1.4745 0.179145,-0.654568 0.516764,-1.11621 0.337619,-0.461643 0.840603,-0.709689 0.502983,-0.248047 1.157551,-0.248047 0.516764,0 0.937065,0.213596 0.420302,0.206705 0.833713,0.613226 v -3.32796 q 0,-0.0689 0.03445,-0.124023 0.04134,-0.05512 0.137804,-0.08957 0.103352,-0.04134 0.268717,-0.06201 0.165364,-0.02067 0.420301,-0.02067 0.254937,0 0.420301,0.02067 0.165365,0.02067 0.261828,0.06201 0.09646,0.03445 0.137803,0.08957 0.04134,0.05512 0.04134,0.124023 z m -1.722546,-4.106551 q -0.37207,-0.468533 -0.716579,-0.71658 -0.33762,-0.248046 -0.70969,-0.248046 -0.337619,0 -0.585665,0.172254 -0.241157,0.165365 -0.392741,0.447862 -0.144694,0.282498 -0.220486,0.633898 -0.0689,0.344509 -0.0689,0.709689 0,0.38585 0.06201,0.75103 0.06201,0.36518 0.199815,0.654568 0.144694,0.282497 0.37896,0.454752 0.234267,0.172255 0.592556,0.172255 0.179145,0 0.34451,-0.04823 0.172254,-0.05512 0.344509,-0.172254 0.179145,-0.117133 0.36518,-0.303169 0.186035,-0.192925 0.406521,-0.468532 z m 9.143277,0.854383 q 0,0.316948 -0.144694,0.468532 -0.137804,0.151585 -0.385851,0.151585 h -3.741371 q 0,0.39274 0.08957,0.716579 0.09646,0.316948 0.296278,0.544325 0.206705,0.220486 0.523654,0.337619 0.323838,0.117133 0.771701,0.117133 0.454752,0 0.799261,-0.06201 0.344509,-0.0689 0.592556,-0.144694 0.254937,-0.08268 0.420302,-0.144694 0.165364,-0.0689 0.268717,-0.0689 0.06201,0 0.103353,0.02756 0.04134,0.02067 0.0689,0.08268 0.02756,0.06201 0.03445,0.179144 0.01378,0.110243 0.01378,0.282498 0,0.151584 -0.0069,0.261827 -0.0069,0.103353 -0.02067,0.179145 -0.01378,0.07579 -0.04134,0.130913 -0.02756,0.04823 -0.07579,0.09646 -0.04134,0.04823 -0.241157,0.130914 -0.199815,0.08268 -0.509873,0.165364 -0.310059,0.07579 -0.70969,0.130914 -0.39963,0.06201 -0.854383,0.06201 -0.819932,0 -1.440049,-0.206705 -0.613226,-0.206706 -1.026637,-0.627007 -0.413411,-0.420302 -0.620117,-1.061089 -0.199815,-0.640787 -0.199815,-1.50206 0,-0.819933 0.213595,-1.4745 0.213596,-0.661458 0.620117,-1.11621 0.406521,-0.461643 0.985297,-0.702799 0.585665,-0.241157 1.316025,-0.241157 0.771701,0 1.316026,0.227376 0.551215,0.227376 0.902614,0.633897 0.3514,0.399631 0.516764,0.950846 0.165365,0.551215 0.165365,1.198892 z m -1.681206,-0.496094 q 0.02067,-0.730359 -0.296278,-1.14377 -0.310058,-0.420302 -0.964626,-0.420302 -0.330729,0 -0.578776,0.124024 -0.241156,0.124023 -0.406521,0.337619 -0.158474,0.206705 -0.248046,0.496093 -0.08268,0.282498 -0.09646,0.606336 z"
       id="text3805"
       style="font-weight:bold;font-size:14.1111px;font-family:Calibri;-inkscape-font-specification:'Calibri, Bold';fill:#ffffff;stroke:#000000;stroke-width:0.8"
       aria-label="Code" />
    <path
       d="m 42.289189,93.165177 q 0,0.475423 -0.130913,0.861274 -0.130914,0.38585 -0.36518,0.682128 -0.227376,0.296278 -0.551215,0.509874 -0.316949,0.213596 -0.702799,0.351399 -0.385851,0.137804 -0.826823,0.206706 -0.434081,0.06201 -0.971516,0.06201 h -2.370224 q -0.227376,0 -0.38585,-0.130914 -0.151584,-0.137804 -0.151584,-0.440972 v -7.77213 q 0,-0.303168 0.151584,-0.434081 0.158474,-0.137804 0.38585,-0.137804 h 2.239311 q 0.819932,0 1.384927,0.137804 0.571886,0.137803 0.957736,0.420301 0.392741,0.275607 0.599446,0.702799 0.206706,0.427191 0.206706,1.005967 0,0.323839 -0.08268,0.613227 -0.08268,0.282497 -0.241157,0.516764 -0.158474,0.234266 -0.392741,0.413411 -0.227376,0.179145 -0.523654,0.289388 0.37896,0.0689 0.695909,0.241156 0.323839,0.172255 0.558105,0.447862 0.241157,0.268717 0.37896,0.633897 0.137804,0.36518 0.137804,0.819932 z m -2.342663,-3.755151 q 0,-0.268717 -0.08268,-0.482313 -0.08268,-0.213596 -0.248047,-0.3514 -0.165365,-0.144693 -0.420301,-0.220485 -0.248047,-0.07579 -0.668349,-0.07579 h -0.916394 v 2.315103 h 1.012857 q 0.392741,0 0.627007,-0.08957 0.234266,-0.09646 0.38585,-0.254937 0.158475,-0.165365 0.234267,-0.378961 0.07579,-0.220485 0.07579,-0.461642 z m 0.461642,3.817163 q 0,-0.310058 -0.103353,-0.551215 -0.103352,-0.248046 -0.303168,-0.413411 -0.199815,-0.165364 -0.509873,-0.254937 -0.310059,-0.08957 -0.806152,-0.08957 h -1.074869 v 2.535588 h 1.309135 q 0.37896,0 0.633897,-0.07579 0.261827,-0.08268 0.447862,-0.234266 0.192925,-0.158474 0.296278,-0.385851 0.110243,-0.234266 0.110243,-0.530544 z m 9.060595,2.377114 q 0,0.0689 -0.03445,0.124024 -0.03445,0.04823 -0.124023,0.08268 -0.08268,0.03445 -0.227377,0.04823 -0.137803,0.02067 -0.351399,0.02067 -0.227376,0 -0.37207,-0.02067 -0.137804,-0.01378 -0.220486,-0.04823 -0.08268,-0.03445 -0.117133,-0.08268 -0.03445,-0.05512 -0.03445,-0.124024 v -0.709689 q -0.509874,0.551215 -1.040418,0.826822 -0.523654,0.275608 -1.08865,0.275608 -0.633897,0 -1.067978,-0.206706 -0.427192,-0.206705 -0.695909,-0.564995 -0.261827,-0.35829 -0.37896,-0.826822 -0.110243,-0.475423 -0.110243,-1.178222 v -3.762042 q 0,-0.0689 0.03445,-0.117133 0.04134,-0.05512 0.137804,-0.08957 0.103353,-0.03445 0.268717,-0.04823 0.172255,-0.02067 0.420302,-0.02067 0.254937,0 0.420301,0.02067 0.165365,0.01378 0.261827,0.04823 0.103353,0.03445 0.144694,0.08957 0.04134,0.04823 0.04134,0.117133 v 3.472654 q 0,0.482313 0.06201,0.73725 0.06201,0.254937 0.186035,0.440972 0.130913,0.179145 0.323839,0.282498 0.199815,0.09646 0.461642,0.09646 0.330729,0 0.661458,-0.241156 0.337619,-0.241157 0.716579,-0.702799 v -4.085881 q 0,-0.0689 0.03445,-0.117133 0.04134,-0.05512 0.137804,-0.08957 0.103353,-0.03445 0.268717,-0.04823 0.165365,-0.02067 0.420302,-0.02067 0.254937,0 0.420301,0.02067 0.165364,0.01378 0.261827,0.04823 0.09646,0.03445 0.137804,0.08957 0.04134,0.04823 0.04134,0.117133 z m 3.479544,0 q 0,0.0689 -0.04134,0.124024 -0.04134,0.04823 -0.144694,0.08268 -0.09646,0.03445 -0.261827,0.04823 -0.165364,0.02067 -0.420301,0.02067 -0.254937,0 -0.420302,-0.02067 -0.165364,-0.01378 -0.268717,-0.04823 -0.09646,-0.03445 -0.137804,-0.08268 -0.04134,-0.05512 -0.04134,-0.124024 v -6.132265 q 0,-0.0689 0.04134,-0.117133 0.04134,-0.05512 0.137804,-0.08957 0.103353,-0.04134 0.268717,-0.06201 0.165365,-0.02067 0.420302,-0.02067 0.254937,0 0.420301,0.02067 0.165364,0.02067 0.261827,0.06201 0.103353,0.03445 0.144694,0.08957 0.04134,0.04823 0.04134,0.117133 z m 0.130914,-8.226882 q 0,0.523654 -0.213596,0.72347 -0.213596,0.199815 -0.792372,0.199815 -0.585665,0 -0.792371,-0.192925 -0.199815,-0.192925 -0.199815,-0.695909 0,-0.523654 0.206705,-0.72347 0.213596,-0.206705 0.799262,-0.206705 0.578775,0 0.785481,0.199815 0.206706,0.192926 0.206706,0.695909 z m 3.334849,8.226882 q 0,0.0689 -0.04134,0.124024 -0.04134,0.04823 -0.144694,0.08268 -0.09646,0.03445 -0.261827,0.04823 -0.165364,0.02067 -0.420301,0.02067 -0.254937,0 -0.420302,-0.02067 -0.165364,-0.01378 -0.268717,-0.04823 -0.09646,-0.03445 -0.137804,-0.08268 -0.04134,-0.05512 -0.04134,-0.124024 v -9.060594 q 0,-0.0689 0.04134,-0.124024 0.04134,-0.05512 0.137804,-0.08957 0.103353,-0.04134 0.268717,-0.06201 0.165365,-0.02067 0.420302,-0.02067 0.254937,0 0.420301,0.02067 0.165365,0.02067 0.261827,0.06201 0.103353,0.03445 0.144694,0.08957 0.04134,0.05512 0.04134,0.124024 z m 7.558536,0 q 0,0.07579 -0.03445,0.130914 -0.03445,0.04823 -0.117133,0.08268 -0.08268,0.03445 -0.227376,0.04823 -0.137804,0.01378 -0.34451,0.01378 -0.220486,0 -0.358289,-0.01378 -0.137804,-0.01378 -0.227377,-0.04823 -0.08268,-0.03445 -0.124023,-0.08268 -0.03445,-0.05512 -0.03445,-0.130914 v -0.682128 q -0.475423,0.509874 -0.999077,0.792371 -0.516764,0.282498 -1.150661,0.282498 -0.702799,0 -1.192002,-0.268717 -0.482313,-0.275608 -0.792372,-0.73725 -0.303168,-0.461643 -0.440971,-1.074869 -0.137804,-0.620117 -0.137804,-1.302245 0,-0.819933 0.172254,-1.4745 0.179145,-0.654568 0.516764,-1.11621 0.33762,-0.461643 0.840603,-0.70969 0.502984,-0.248046 1.157551,-0.248046 0.516764,0 0.937066,0.213595 0.420301,0.206706 0.833712,0.613227 v -3.32796 q 0,-0.0689 0.03445,-0.124023 0.04134,-0.05512 0.137804,-0.08957 0.103353,-0.04134 0.268717,-0.06201 0.165365,-0.02067 0.420301,-0.02067 0.254937,0 0.420302,0.02067 0.165364,0.02067 0.261827,0.06201 0.09646,0.03445 0.137804,0.08957 0.04134,0.05512 0.04134,0.124023 z m -1.722547,-4.106551 q -0.37207,-0.468532 -0.716579,-0.716579 -0.337619,-0.248047 -0.709689,-0.248047 -0.337619,0 -0.585666,0.172255 -0.241157,0.165364 -0.392741,0.447862 -0.144694,0.282498 -0.220486,0.633897 -0.0689,0.34451 -0.0689,0.709689 0,0.385851 0.06201,0.751031 0.06201,0.36518 0.199816,0.654567 0.144693,0.282498 0.37896,0.454753 0.234266,0.172254 0.592556,0.172254 0.179145,0 0.344509,-0.04823 0.172255,-0.05512 0.344509,-0.172255 0.179145,-0.117133 0.36518,-0.303168 0.186035,-0.192925 0.406521,-0.468533 z"
       id="text3805-9"
       style="font-weight:bold;font-size:14.1111px;font-family:Calibri;-inkscape-font-specification:'Calibri, Bold';fill:#ffffff;stroke:#000000;stroke-width:0.8"
       aria-label="Build" />
    <path
       d="m 53.398732,126.35621 q 0,0.19981 -0.02067,0.34451 -0.01378,0.1378 -0.04823,0.22737 -0.03445,0.0827 -0.08957,0.12403 -0.04823,0.0413 -0.110243,0.0413 h -2.23242 v 7.18646 q 0,0.0689 -0.04823,0.12403 -0.04134,0.0551 -0.144694,0.0896 -0.103353,0.0345 -0.282498,0.0551 -0.172255,0.0207 -0.434082,0.0207 -0.261827,0 -0.440972,-0.0207 -0.172254,-0.0207 -0.275607,-0.0551 -0.103353,-0.0344 -0.151584,-0.0896 -0.04134,-0.0551 -0.04134,-0.12403 v -7.18646 h -2.23242 q -0.0689,0 -0.117133,-0.0413 -0.04823,-0.0413 -0.08268,-0.12403 -0.03445,-0.0896 -0.05512,-0.22737 -0.01378,-0.1447 -0.01378,-0.34451 0,-0.20671 0.01378,-0.3514 0.02067,-0.14469 0.05512,-0.22738 0.03445,-0.0896 0.08268,-0.12402 0.04823,-0.0413 0.117133,-0.0413 h 6.283849 q 0.06201,0 0.110243,0.0413 0.05512,0.0345 0.08957,0.12402 0.03445,0.0827 0.04823,0.22738 0.02067,0.14469 0.02067,0.3514 z m 5.408796,4.68533 q 0,0.31694 -0.144694,0.46853 -0.137803,0.15158 -0.38585,0.15158 h -3.741371 q 0,0.39274 0.08957,0.71658 0.09646,0.31695 0.296278,0.54433 0.206706,0.22048 0.523655,0.33762 0.323838,0.11713 0.7717,0.11713 0.454753,0 0.799262,-0.062 0.344509,-0.0689 0.592556,-0.1447 0.254937,-0.0827 0.420301,-0.14469 0.165365,-0.0689 0.268717,-0.0689 0.06201,0 0.103353,0.0276 0.04134,0.0207 0.0689,0.0827 0.02756,0.062 0.03445,0.17914 0.01378,0.11025 0.01378,0.2825 0,0.15159 -0.0069,0.26183 -0.0069,0.10335 -0.02067,0.17914 -0.01378,0.0758 -0.04134,0.13092 -0.02756,0.0482 -0.07579,0.0965 -0.04134,0.0482 -0.241156,0.13091 -0.199815,0.0827 -0.509874,0.16537 -0.310058,0.0758 -0.709689,0.13091 -0.399631,0.062 -0.854383,0.062 -0.819932,0 -1.440049,-0.2067 -0.613226,-0.20671 -1.026637,-0.62701 -0.413412,-0.4203 -0.620117,-1.06109 -0.199815,-0.64078 -0.199815,-1.50206 0,-0.81993 0.213595,-1.4745 0.213596,-0.66146 0.620117,-1.11621 0.406521,-0.46164 0.985297,-0.7028 0.585665,-0.24115 1.316025,-0.24115 0.771701,0 1.316025,0.22737 0.551215,0.22738 0.902615,0.6339 0.351399,0.39963 0.516764,0.95085 0.165364,0.55121 0.165364,1.19889 z m -1.681205,-0.4961 q 0.02067,-0.73036 -0.296278,-1.14377 -0.310058,-0.4203 -0.964626,-0.4203 -0.330729,0 -0.578776,0.12402 -0.241156,0.12403 -0.406521,0.33762 -0.158474,0.20671 -0.248046,0.4961 -0.08268,0.28249 -0.09646,0.60633 z m 7.43451,2.01194 q 0,0.52365 -0.199815,0.92328 -0.192926,0.39963 -0.551215,0.66835 -0.35829,0.26872 -0.847493,0.39963 -0.489203,0.1378 -1.061089,0.1378 -0.344509,0 -0.661457,-0.0551 -0.310059,-0.0482 -0.558106,-0.12402 -0.248046,-0.0827 -0.413411,-0.16537 -0.165364,-0.0827 -0.241156,-0.15158 -0.07579,-0.0758 -0.117133,-0.22738 -0.04134,-0.15847 -0.04134,-0.46164 0,-0.19981 0.01378,-0.31695 0.01378,-0.12402 0.04134,-0.19292 0.02756,-0.0758 0.0689,-0.0965 0.04134,-0.0276 0.103353,-0.0276 0.07579,0 0.220486,0.0896 0.151584,0.0827 0.37207,0.18603 0.220486,0.10335 0.509873,0.19293 0.296278,0.0896 0.668348,0.0896 0.234267,0 0.413412,-0.0482 0.186035,-0.0482 0.316948,-0.13781 0.137804,-0.0896 0.206706,-0.22737 0.0689,-0.13781 0.0689,-0.31695 0,-0.20671 -0.130914,-0.3514 -0.124023,-0.15158 -0.337619,-0.26183 -0.206706,-0.11024 -0.475423,-0.2067 -0.261827,-0.0965 -0.544325,-0.2136 -0.275607,-0.11713 -0.544324,-0.26872 -0.261827,-0.15158 -0.475423,-0.37207 -0.206706,-0.22048 -0.337619,-0.53054 -0.124024,-0.31006 -0.124024,-0.74414 0,-0.44097 0.172255,-0.80615 0.172255,-0.37207 0.496093,-0.6339 0.323839,-0.26183 0.785482,-0.40652 0.468532,-0.14469 1.047308,-0.14469 0.289388,0 0.558105,0.0413 0.275607,0.0413 0.496093,0.10335 0.220486,0.062 0.37207,0.1378 0.151584,0.0689 0.213596,0.12403 0.0689,0.0482 0.09646,0.10335 0.02756,0.0482 0.04134,0.12402 0.01378,0.0689 0.02067,0.17915 0.01378,0.10335 0.01378,0.26183 0,0.18603 -0.01378,0.30316 -0.0069,0.11714 -0.03445,0.18604 -0.02067,0.0689 -0.06201,0.0965 -0.04134,0.0207 -0.09646,0.0207 -0.06201,0 -0.192925,-0.0689 -0.130914,-0.0758 -0.330729,-0.15847 -0.192925,-0.0827 -0.454752,-0.15159 -0.254937,-0.0758 -0.585666,-0.0758 -0.234266,0 -0.406521,0.0482 -0.172255,0.0482 -0.282498,0.1378 -0.110243,0.0896 -0.165364,0.2136 -0.05512,0.11713 -0.05512,0.25494 0,0.21359 0.130914,0.35829 0.130914,0.14469 0.344509,0.25493 0.213596,0.11025 0.482313,0.20671 0.275608,0.0965 0.551215,0.2136 0.282498,0.11024 0.551215,0.26182 0.275607,0.15159 0.489203,0.37207 0.213596,0.22049 0.344509,0.53055 0.130914,0.30316 0.130914,0.72347 z m 4.781789,1.12999 q 0,0.30316 -0.04134,0.46853 -0.03445,0.15847 -0.09646,0.22738 -0.06201,0.062 -0.186035,0.11713 -0.117133,0.0482 -0.282498,0.0827 -0.158474,0.0413 -0.351399,0.062 -0.186035,0.0207 -0.378961,0.0207 -0.516763,0 -0.895724,-0.13091 -0.37896,-0.13091 -0.627007,-0.39963 -0.248046,-0.27561 -0.365179,-0.68902 -0.117134,-0.41341 -0.117134,-0.97841 v -3.14881 h -0.737249 q -0.130914,0 -0.199816,-0.15848 -0.0689,-0.16536 -0.0689,-0.54432 0,-0.19982 0.01378,-0.33762 0.02067,-0.1378 0.05512,-0.21359 0.03445,-0.0827 0.08268,-0.11714 0.05512,-0.0344 0.124024,-0.0344 h 0.730359 v -1.37115 q 0,-0.0689 0.03445,-0.12402 0.04134,-0.0551 0.137804,-0.0896 0.103353,-0.0413 0.268717,-0.0551 0.172255,-0.0207 0.420302,-0.0207 0.254936,0 0.420301,0.0207 0.172255,0.0138 0.268717,0.0551 0.09646,0.0345 0.137804,0.0896 0.04134,0.0551 0.04134,0.12402 v 1.37115 h 1.336696 q 0.0689,0 0.117133,0.0344 0.05512,0.0345 0.08957,0.11714 0.03445,0.0758 0.04823,0.21359 0.02067,0.1378 0.02067,0.33762 0,0.37896 -0.0689,0.54432 -0.0689,0.15848 -0.199816,0.15848 h -1.343586 v 2.88699 q 0,0.50298 0.158474,0.75792 0.158475,0.24804 0.564996,0.24804 0.137803,0 0.248046,-0.0207 0.110243,-0.0276 0.192925,-0.0551 0.08957,-0.0344 0.144694,-0.0551 0.06201,-0.0276 0.110243,-0.0276 0.04134,0 0.07579,0.0276 0.04134,0.0207 0.06201,0.0965 0.02067,0.0689 0.03445,0.19293 0.02067,0.12402 0.02067,0.31695 z"
       id="text3805-9-3"
       style="font-weight:bold;font-size:14.1111px;font-family:Calibri;-inkscape-font-specification:'Calibri, Bold';fill:#ffffff;stroke:#000000;stroke-width:0.8"
       aria-label="Test" />
    <path
       d="m 196.35452,144.23958 q 0,0.0689 -0.0413,0.12402 -0.0345,0.0551 -0.1378,0.0896 -0.0965,0.0345 -0.26183,0.0551 -0.16536,0.0207 -0.4203,0.0207 -0.24804,0 -0.41341,-0.0207 -0.16536,-0.0207 -0.26183,-0.0551 -0.0965,-0.0344 -0.1378,-0.0896 -0.0413,-0.0551 -0.0413,-0.12402 v -7.25537 h -0.0138 l -2.58382,7.24848 q -0.0276,0.0896 -0.0896,0.15158 -0.062,0.0551 -0.17226,0.0896 -0.10335,0.0345 -0.26871,0.0413 -0.16537,0.0138 -0.39964,0.0138 -0.23426,0 -0.39963,-0.0207 -0.16536,-0.0138 -0.2756,-0.0482 -0.10336,-0.0413 -0.16537,-0.0965 -0.062,-0.0551 -0.0827,-0.13091 l -2.49425,-7.24848 h -0.0138 v 7.25537 q 0,0.0689 -0.0413,0.12402 -0.0344,0.0551 -0.1378,0.0896 -0.10336,0.0345 -0.26872,0.0551 -0.15847,0.0207 -0.41341,0.0207 -0.24805,0 -0.41341,-0.0207 -0.16537,-0.0207 -0.26872,-0.0551 -0.0965,-0.0344 -0.1378,-0.0896 -0.0344,-0.0551 -0.0344,-0.12402 v -7.94439 q 0,-0.3514 0.18603,-0.53743 0.18604,-0.18604 0.49609,-0.18604 h 1.18512 q 0.31694,0 0.54432,0.0551 0.22738,0.0482 0.39274,0.17225 0.16537,0.11713 0.27561,0.31695 0.11024,0.19292 0.19292,0.48231 l 1.92926,5.31234 h 0.0276 l 1.99815,-5.29856 q 0.0896,-0.28938 0.19293,-0.4892 0.11024,-0.19982 0.24804,-0.32384 0.1447,-0.12402 0.33762,-0.17225 0.19293,-0.0551 0.44786,-0.0551 h 1.21957 q 0.18603,0 0.31694,0.0482 0.13781,0.0482 0.22049,0.14469 0.0896,0.0896 0.13091,0.22738 0.0482,0.13091 0.0482,0.30316 z m 8.05462,-3.12126 q 0,0.78549 -0.2067,1.43316 -0.20671,0.64768 -0.62701,1.11621 -0.4203,0.46854 -1.0542,0.72347 -0.6339,0.25494 -1.48139,0.25494 -0.81993,0 -1.42627,-0.22738 -0.60633,-0.22737 -1.00596,-0.66145 -0.39963,-0.43409 -0.59256,-1.06798 -0.19292,-0.6339 -0.19292,-1.44694 0,-0.78548 0.2067,-1.43316 0.2136,-0.65457 0.6339,-1.11621 0.4203,-0.46853 1.04731,-0.72347 0.63389,-0.25494 1.48139,-0.25494 0.82682,0 1.43315,0.22738 0.60634,0.22048 0.99908,0.65457 0.39963,0.43408 0.59256,1.06798 0.19292,0.63389 0.19292,1.45382 z m -1.78456,0.0689 q 0,-0.45476 -0.0758,-0.83372 -0.0689,-0.38585 -0.24115,-0.66834 -0.17226,-0.2825 -0.46165,-0.44098 -0.28249,-0.15847 -0.71658,-0.15847 -0.38585,0 -0.67523,0.14469 -0.28939,0.13781 -0.47543,0.41341 -0.18603,0.26872 -0.28249,0.65457 -0.0896,0.37896 -0.0896,0.86817 0,0.45475 0.0758,0.8406 0.0758,0.37896 0.24115,0.66146 0.17226,0.28249 0.46164,0.44097 0.28939,0.15158 0.71658,0.15158 0.39274,0 0.68213,-0.1378 0.28939,-0.1447 0.47542,-0.41341 0.18604,-0.26872 0.27561,-0.64768 0.0896,-0.38585 0.0896,-0.87505 z m 9.02615,3.06613 q 0,0.0689 -0.0413,0.12402 -0.0413,0.0482 -0.13781,0.0827 -0.0965,0.0345 -0.26871,0.0482 -0.16537,0.0207 -0.41342,0.0207 -0.25493,0 -0.42719,-0.0207 -0.16536,-0.0138 -0.26182,-0.0482 -0.0965,-0.0344 -0.13781,-0.0827 -0.0413,-0.0551 -0.0413,-0.12402 v -3.50711 q 0,-0.44786 -0.0689,-0.70279 -0.062,-0.25494 -0.18604,-0.43409 -0.12402,-0.18603 -0.32383,-0.28249 -0.19293,-0.10336 -0.45476,-0.10336 -0.33073,0 -0.66834,0.24116 -0.33762,0.24116 -0.7028,0.7028 v 4.08588 q 0,0.0689 -0.0413,0.12402 -0.0413,0.0482 -0.1447,0.0827 -0.0965,0.0345 -0.26183,0.0482 -0.16536,0.0207 -0.4203,0.0207 -0.25493,0 -0.4203,-0.0207 -0.16536,-0.0138 -0.26872,-0.0482 -0.0965,-0.0344 -0.1378,-0.0827 -0.0413,-0.0551 -0.0413,-0.12402 v -6.14605 q 0,-0.0689 0.0344,-0.11713 0.0344,-0.0551 0.12402,-0.0896 0.0896,-0.0344 0.22738,-0.0482 0.14469,-0.0207 0.35829,-0.0207 0.22049,0 0.36518,0.0207 0.14469,0.0138 0.22049,0.0482 0.0827,0.0344 0.11713,0.0896 0.0345,0.0482 0.0345,0.11713 v 0.70969 q 0.50987,-0.55121 1.03353,-0.82682 0.53054,-0.27561 1.10243,-0.27561 0.627,0 1.0542,0.20671 0.43408,0.2067 0.6959,0.56499 0.26872,0.3514 0.38585,0.82683 0.11714,0.47542 0.11714,1.14377 z m 3.4382,0 q 0,0.0689 -0.0413,0.12402 -0.0413,0.0482 -0.14469,0.0827 -0.0965,0.0345 -0.26183,0.0482 -0.16537,0.0207 -0.4203,0.0207 -0.25494,0 -0.4203,-0.0207 -0.16537,-0.0138 -0.26872,-0.0482 -0.0965,-0.0344 -0.13781,-0.0827 -0.0413,-0.0551 -0.0413,-0.12402 v -6.13227 q 0,-0.0689 0.0413,-0.11713 0.0414,-0.0551 0.13781,-0.0896 0.10335,-0.0413 0.26872,-0.062 0.16536,-0.0207 0.4203,-0.0207 0.25493,0 0.4203,0.0207 0.16536,0.0207 0.26183,0.062 0.10335,0.0344 0.14469,0.0896 0.0413,0.0482 0.0413,0.11713 z m 0.13091,-8.22688 q 0,0.52365 -0.21359,0.72347 -0.2136,0.19981 -0.79237,0.19981 -0.58567,0 -0.79237,-0.19292 -0.19982,-0.19293 -0.19982,-0.69591 0,-0.52366 0.20671,-0.72347 0.21359,-0.20671 0.79926,-0.20671 0.57877,0 0.78548,0.19982 0.2067,0.19292 0.2067,0.69591 z m 5.23654,7.62054 q 0,0.30317 -0.0413,0.46854 -0.0344,0.15847 -0.0965,0.22737 -0.062,0.062 -0.18603,0.11713 -0.11714,0.0482 -0.2825,0.0827 -0.15848,0.0413 -0.3514,0.062 -0.18604,0.0207 -0.37896,0.0207 -0.51677,0 -0.89573,-0.13091 -0.37896,-0.13092 -0.627,-0.39964 -0.24805,-0.2756 -0.36518,-0.68901 -0.11714,-0.41342 -0.11714,-0.97841 v -3.14882 h -0.73725 q -0.13091,0 -0.19981,-0.15847 -0.0689,-0.16536 -0.0689,-0.54432 0,-0.19982 0.0138,-0.33762 0.0207,-0.13781 0.0551,-0.2136 0.0344,-0.0827 0.0827,-0.11713 0.0551,-0.0344 0.12402,-0.0344 h 0.73036 v -1.37115 q 0,-0.0689 0.0345,-0.12402 0.0413,-0.0551 0.1378,-0.0896 0.10335,-0.0413 0.26872,-0.0551 0.17225,-0.0207 0.4203,-0.0207 0.25493,0 0.4203,0.0207 0.17225,0.0138 0.26872,0.0551 0.0965,0.0345 0.1378,0.0896 0.0413,0.0551 0.0413,0.12402 v 1.37115 h 1.3367 q 0.0689,0 0.11713,0.0344 0.0551,0.0344 0.0896,0.11713 0.0344,0.0758 0.0482,0.2136 0.0207,0.1378 0.0207,0.33762 0,0.37896 -0.0689,0.54432 -0.0689,0.15847 -0.19981,0.15847 h -1.34359 v 2.88699 q 0,0.50299 0.15848,0.75792 0.15847,0.24805 0.56499,0.24805 0.1378,0 0.24805,-0.0207 0.11024,-0.0276 0.19292,-0.0551 0.0896,-0.0344 0.1447,-0.0551 0.062,-0.0276 0.11024,-0.0276 0.0413,0 0.0758,0.0276 0.0413,0.0207 0.062,0.0965 0.0207,0.0689 0.0344,0.19292 0.0207,0.12403 0.0207,0.31695 z m 7.33116,-2.5287 q 0,0.78549 -0.20671,1.43316 -0.2067,0.64768 -0.627,1.11621 -0.4203,0.46854 -1.0542,0.72347 -0.6339,0.25494 -1.48139,0.25494 -0.81993,0 -1.42627,-0.22738 -0.60634,-0.22737 -1.00597,-0.66145 -0.39963,-0.43409 -0.59255,-1.06798 -0.19293,-0.6339 -0.19293,-1.44694 0,-0.78548 0.20671,-1.43316 0.21359,-0.65457 0.6339,-1.11621 0.4203,-0.46853 1.0473,-0.72347 0.6339,-0.25494 1.48139,-0.25494 0.82683,0 1.43316,0.22738 0.60634,0.22048 0.99908,0.65457 0.39963,0.43408 0.59256,1.06798 0.19292,0.63389 0.19292,1.45382 z m -1.78456,0.0689 q 0,-0.45476 -0.0758,-0.83372 -0.0689,-0.38585 -0.24116,-0.66834 -0.17225,-0.2825 -0.46164,-0.44098 -0.2825,-0.15847 -0.71658,-0.15847 -0.38585,0 -0.67524,0.14469 -0.28938,0.13781 -0.47542,0.41341 -0.18603,0.26872 -0.2825,0.65457 -0.0896,0.37896 -0.0896,0.86817 0,0.45475 0.0758,0.8406 0.0758,0.37896 0.24116,0.66146 0.17225,0.28249 0.46164,0.44097 0.28939,0.15158 0.71658,0.15158 0.39274,0 0.68213,-0.1378 0.28939,-0.1447 0.47542,-0.41341 0.18604,-0.26872 0.27561,-0.64768 0.0896,-0.38585 0.0896,-0.87505 z m 7.10379,-2.50803 q 0,0.24805 -0.0138,0.40652 -0.0138,0.15847 -0.0413,0.24805 -0.0276,0.0896 -0.0758,0.12402 -0.0413,0.0345 -0.11024,0.0345 -0.0551,0 -0.12402,-0.0207 -0.0689,-0.0276 -0.15848,-0.0551 -0.0827,-0.0276 -0.18603,-0.0482 -0.10335,-0.0276 -0.22738,-0.0276 -0.14469,0 -0.28939,0.062 -0.14469,0.0551 -0.30316,0.17914 -0.15159,0.12403 -0.32384,0.33073 -0.16537,0.20671 -0.35829,0.50988 v 3.83094 q 0,0.0689 -0.0413,0.12402 -0.0413,0.0482 -0.1447,0.0827 -0.0965,0.0345 -0.26182,0.0482 -0.16537,0.0207 -0.42031,0.0207 -0.25493,0 -0.4203,-0.0207 -0.16536,-0.0138 -0.26871,-0.0482 -0.0965,-0.0344 -0.13781,-0.0827 -0.0413,-0.0551 -0.0413,-0.12402 v -6.14605 q 0,-0.0689 0.0344,-0.11713 0.0344,-0.0551 0.12403,-0.0896 0.0896,-0.0344 0.22737,-0.0482 0.1447,-0.0207 0.35829,-0.0207 0.22049,0 0.36518,0.0207 0.14469,0.0138 0.22049,0.0482 0.0827,0.0344 0.11713,0.0896 0.0345,0.0482 0.0345,0.11713 v 0.76481 q 0.24116,-0.34451 0.45475,-0.56499 0.2136,-0.22738 0.40652,-0.35829 0.19293,-0.13091 0.38585,-0.17915 0.19293,-0.0551 0.38585,-0.0551 0.0896,0 0.19293,0.0138 0.10335,0.007 0.2136,0.0344 0.11024,0.0207 0.19292,0.0551 0.0827,0.0276 0.11713,0.062 0.0413,0.0344 0.0551,0.0758 0.0207,0.0413 0.0344,0.11713 0.0138,0.0689 0.0207,0.2136 0.007,0.14469 0.007,0.39274 z"
       id="text3805-1"
       style="font-weight:bold;font-size:14.1111px;font-family:Calibri;-inkscape-font-specification:'Calibri, Bold';fill:#ffffff;stroke:#000000;stroke-width:0.8"
       aria-label="Monitor" />
    <path
       d="m 166.37873,-41.203754 q 0,0.206706 -0.0207,0.351399 -0.0138,0.137804 -0.0551,0.220486 -0.0344,0.08268 -0.0827,0.124024 -0.0482,0.04134 -0.11024,0.04134 h -2.91455 v 2.397784 h 2.73541 q 0.062,0 0.11024,0.03445 0.0482,0.03445 0.0827,0.117134 0.0413,0.08268 0.0551,0.220485 0.0207,0.137804 0.0207,0.34451 0,0.206705 -0.0207,0.344509 -0.0138,0.137804 -0.0551,0.227376 -0.0345,0.08957 -0.0827,0.130914 -0.0482,0.03445 -0.11024,0.03445 h -2.73541 v 3.321069 q 0,0.07579 -0.0413,0.130914 -0.0413,0.05512 -0.15158,0.09646 -0.10336,0.03445 -0.27561,0.05512 -0.17225,0.02067 -0.44097,0.02067 -0.26183,0 -0.44097,-0.02067 -0.17226,-0.02067 -0.27561,-0.05512 -0.10335,-0.04134 -0.15158,-0.09646 -0.0413,-0.05512 -0.0413,-0.130914 v -8.082188 q 0,-0.303168 0.15159,-0.434081 0.15847,-0.137804 0.38585,-0.137804 h 4.19612 q 0.062,0 0.11024,0.04134 0.0482,0.03445 0.0827,0.124023 0.0413,0.08268 0.0551,0.227376 0.0207,0.144694 0.0207,0.3514 z m 6.84195,4.685326 q 0,0.316949 -0.14469,0.468533 -0.1378,0.151584 -0.38585,0.151584 h -3.74137 q 0,0.39274 0.0896,0.716579 0.0965,0.316949 0.29628,0.544325 0.2067,0.220486 0.52365,0.337619 0.32384,0.117133 0.7717,0.117133 0.45476,0 0.79926,-0.06201 0.34451,-0.0689 0.59256,-0.144693 0.25494,-0.08268 0.4203,-0.144694 0.16537,-0.0689 0.26872,-0.0689 0.062,0 0.10335,0.02756 0.0413,0.02067 0.0689,0.08268 0.0276,0.06201 0.0345,0.179145 0.0138,0.110243 0.0138,0.282497 0,0.151584 -0.007,0.261827 -0.007,0.103353 -0.0207,0.179145 -0.0138,0.07579 -0.0413,0.130914 -0.0276,0.04823 -0.0758,0.09646 -0.0413,0.04823 -0.24115,0.130914 -0.19982,0.08268 -0.50988,0.165364 -0.31006,0.07579 -0.70969,0.130914 -0.39963,0.06201 -0.85438,0.06201 -0.81993,0 -1.44005,-0.206705 -0.61323,-0.206706 -1.02664,-0.627007 -0.41341,-0.420301 -0.62011,-1.061089 -0.19982,-0.640787 -0.19982,-1.50206 0,-0.819932 0.2136,-1.4745 0.21359,-0.661458 0.62011,-1.11621 0.40652,-0.461642 0.9853,-0.702799 0.58567,-0.241156 1.31603,-0.241156 0.7717,0 1.31602,0.227376 0.55122,0.227376 0.90261,0.633897 0.3514,0.399631 0.51677,0.950845 0.16536,0.551215 0.16536,1.198893 z m -1.6812,-0.496093 q 0.0207,-0.73036 -0.29628,-1.143771 -0.31006,-0.420301 -0.96463,-0.420301 -0.33072,0 -0.57877,0.124023 -0.24116,0.124023 -0.40652,0.337619 -0.15848,0.206706 -0.24805,0.496093 -0.0827,0.282498 -0.0965,0.606337 z m 8.78498,0.496093 q 0,0.316949 -0.14469,0.468533 -0.1378,0.151584 -0.38585,0.151584 h -3.74137 q 0,0.39274 0.0896,0.716579 0.0965,0.316949 0.29628,0.544325 0.2067,0.220486 0.52365,0.337619 0.32384,0.117133 0.7717,0.117133 0.45476,0 0.79927,-0.06201 0.3445,-0.0689 0.59255,-0.144693 0.25494,-0.08268 0.4203,-0.144694 0.16537,-0.0689 0.26872,-0.0689 0.062,0 0.10335,0.02756 0.0413,0.02067 0.0689,0.08268 0.0276,0.06201 0.0345,0.179145 0.0138,0.110243 0.0138,0.282497 0,0.151584 -0.007,0.261827 -0.007,0.103353 -0.0207,0.179145 -0.0138,0.07579 -0.0413,0.130914 -0.0276,0.04823 -0.0758,0.09646 -0.0413,0.04823 -0.24115,0.130914 -0.19982,0.08268 -0.50988,0.165364 -0.31006,0.07579 -0.70969,0.130914 -0.39963,0.06201 -0.85438,0.06201 -0.81993,0 -1.44005,-0.206705 -0.61323,-0.206706 -1.02664,-0.627007 -0.41341,-0.420301 -0.62011,-1.061089 -0.19982,-0.640787 -0.19982,-1.50206 0,-0.819932 0.2136,-1.4745 0.21359,-0.661458 0.62011,-1.11621 0.40652,-0.461642 0.9853,-0.702799 0.58567,-0.241156 1.31603,-0.241156 0.7717,0 1.31602,0.227376 0.55122,0.227376 0.90262,0.633897 0.3514,0.399631 0.51676,0.950845 0.16536,0.551215 0.16536,1.198893 z m -1.6812,-0.496093 q 0.0207,-0.73036 -0.29628,-1.143771 -0.31006,-0.420301 -0.96463,-0.420301 -0.33072,0 -0.57877,0.124023 -0.24116,0.124023 -0.40652,0.337619 -0.15848,0.206706 -0.24805,0.496093 -0.0827,0.282498 -0.0965,0.606337 z m 8.93657,3.748261 q 0,0.07579 -0.0344,0.130913 -0.0344,0.04823 -0.11714,0.08268 -0.0827,0.03445 -0.22737,0.04823 -0.13781,0.01378 -0.34451,0.01378 -0.22049,0 -0.35829,-0.01378 -0.1378,-0.01378 -0.22738,-0.04823 -0.0827,-0.03445 -0.12402,-0.08268 -0.0344,-0.05512 -0.0344,-0.130913 v -0.682129 q -0.47542,0.509874 -0.99908,0.792372 -0.51676,0.282497 -1.15066,0.282497 -0.7028,0 -1.192,-0.268717 -0.48231,-0.275607 -0.79237,-0.73725 -0.30317,-0.461642 -0.44097,-1.074869 -0.13781,-0.620116 -0.13781,-1.302245 0,-0.819932 0.17226,-1.474499 0.17914,-0.654568 0.51676,-1.116211 0.33762,-0.461642 0.8406,-0.709689 0.50299,-0.248046 1.15755,-0.248046 0.51677,0 0.93707,0.213595 0.4203,0.206706 0.83371,0.613227 v -3.32796 q 0,-0.0689 0.0344,-0.124023 0.0413,-0.05512 0.13781,-0.08957 0.10335,-0.04134 0.26871,-0.06201 0.16537,-0.02067 0.42031,-0.02067 0.25493,0 0.4203,0.02067 0.16536,0.02067 0.26182,0.06201 0.0965,0.03445 0.13781,0.08957 0.0413,0.05512 0.0413,0.124023 z m -1.72255,-4.106551 q -0.37207,-0.468532 -0.71658,-0.716579 -0.33762,-0.248047 -0.70969,-0.248047 -0.33762,0 -0.58566,0.172255 -0.24116,0.165364 -0.39274,0.447862 -0.1447,0.282498 -0.22049,0.633897 -0.0689,0.344509 -0.0689,0.709689 0,0.38585 0.062,0.75103 0.062,0.36518 0.19982,0.654568 0.14469,0.282498 0.37896,0.454752 0.23426,0.172255 0.59255,0.172255 0.17915,0 0.34451,-0.04823 0.17226,-0.05512 0.34451,-0.172255 0.17915,-0.117133 0.36518,-0.303168 0.18604,-0.192925 0.40652,-0.468533 z m 9.65315,0.950846 q 0,0.819932 -0.17914,1.4745 -0.17915,0.654567 -0.51677,1.11621 -0.33761,0.461642 -0.83371,0.709689 -0.4892,0.248046 -1.11621,0.248046 -0.31006,0 -0.57877,-0.06201 -0.26872,-0.05512 -0.51677,-0.186035 -0.24115,-0.130914 -0.48231,-0.330729 -0.23427,-0.199816 -0.48231,-0.482313 v 0.668348 q 0,0.07579 -0.0413,0.130913 -0.0345,0.04823 -0.12403,0.08268 -0.0827,0.03445 -0.22737,0.04823 -0.1447,0.01378 -0.3514,0.01378 -0.2136,0 -0.35829,-0.01378 -0.13781,-0.01378 -0.22738,-0.04823 -0.0827,-0.03445 -0.11713,-0.08268 -0.0344,-0.05512 -0.0344,-0.130913 v -9.060594 q 0,-0.0689 0.0413,-0.124024 0.0413,-0.05512 0.1378,-0.08957 0.10335,-0.04134 0.26872,-0.06201 0.16536,-0.02067 0.4203,-0.02067 0.25494,0 0.4203,0.02067 0.16537,0.02067 0.26183,0.06201 0.10335,0.03445 0.14469,0.08957 0.0413,0.05512 0.0413,0.124024 v 3.396861 q 0.23427,-0.234266 0.46854,-0.399631 0.23426,-0.165364 0.46853,-0.268717 0.23427,-0.110243 0.48231,-0.158474 0.24805,-0.04823 0.52366,-0.04823 0.68212,0 1.15755,0.275607 0.47542,0.268717 0.7717,0.73036 0.30317,0.461642 0.44097,1.081759 0.1378,0.613226 0.1378,1.295355 z m -1.79833,0.124023 q 0,-0.39274 -0.062,-0.75792 -0.0551,-0.36518 -0.19981,-0.647678 -0.1447,-0.282497 -0.37896,-0.447862 -0.22738,-0.172254 -0.57878,-0.172254 -0.17225,0 -0.33762,0.04823 -0.16536,0.04823 -0.34451,0.165364 -0.17225,0.117133 -0.35829,0.303168 -0.18603,0.186035 -0.39274,0.461643 v 2.039495 q 0.36518,0.468532 0.69591,0.716579 0.33762,0.241157 0.7028,0.241157 0.33762,0 0.57189,-0.172255 0.23426,-0.172255 0.38585,-0.447862 0.15847,-0.275607 0.22737,-0.627007 0.0689,-0.351399 0.0689,-0.702799 z m 8.4198,3.052352 q 0,0.09646 -0.0689,0.151584 -0.0689,0.05512 -0.22048,0.07579 -0.1447,0.02756 -0.43409,0.02756 -0.31005,0 -0.45475,-0.02756 -0.1378,-0.02067 -0.19981,-0.07579 -0.0551,-0.05512 -0.0551,-0.151584 v -0.489203 q -0.37896,0.406521 -0.86816,0.633897 -0.48231,0.227376 -1.07487,0.227376 -0.4892,0 -0.90261,-0.130913 -0.40652,-0.124023 -0.70969,-0.37207 -0.29628,-0.254937 -0.46164,-0.627007 -0.16537,-0.37207 -0.16537,-0.868163 0,-0.537435 0.20671,-0.930175 0.21359,-0.399631 0.627,-0.654568 0.42031,-0.261827 1.04042,-0.385851 0.62012,-0.124023 1.44005,-0.124023 h 0.59945 v -0.37207 q 0,-0.289388 -0.062,-0.502983 -0.0551,-0.220486 -0.19293,-0.36518 -0.13091,-0.144694 -0.35829,-0.213596 -0.22049,-0.0689 -0.55121,-0.0689 -0.43409,0 -0.77859,0.09646 -0.33762,0.09646 -0.59945,0.213595 -0.26183,0.117134 -0.44097,0.213596 -0.17226,0.09646 -0.2825,0.09646 -0.0758,0 -0.1378,-0.04823 -0.0551,-0.04823 -0.0965,-0.137804 -0.0344,-0.08957 -0.0551,-0.220486 -0.0207,-0.130914 -0.0207,-0.289388 0,-0.213596 0.0345,-0.337619 0.0344,-0.124023 0.13092,-0.220486 0.0965,-0.103353 0.33761,-0.220486 0.24116,-0.124023 0.565,-0.227376 0.32384,-0.103353 0.7028,-0.165364 0.38585,-0.0689 0.79237,-0.0689 0.72347,0 1.23334,0.144694 0.51677,0.137803 0.8475,0.434081 0.33073,0.289388 0.48231,0.75103 0.15158,0.461643 0.15158,1.09554 z m -1.70187,-2.632051 h -0.66146 q -0.4203,0 -0.71658,0.06201 -0.29628,0.06201 -0.48231,0.186035 -0.18604,0.124023 -0.27561,0.303168 -0.0827,0.172255 -0.0827,0.399631 0,0.38585 0.24115,0.606336 0.24805,0.220486 0.68213,0.220486 0.36518,0 0.66835,-0.186035 0.31006,-0.186035 0.62701,-0.544324 z m 8.08218,1.632974 q 0,0.179145 -0.0138,0.303169 -0.007,0.117133 -0.0276,0.199815 -0.0138,0.08268 -0.0413,0.137804 -0.0207,0.04823 -0.10335,0.130913 -0.0827,0.07579 -0.2825,0.192925 -0.19981,0.110243 -0.45475,0.199816 -0.25494,0.08957 -0.55811,0.144694 -0.29627,0.05512 -0.61322,0.05512 -0.70969,0 -1.26091,-0.220486 -0.54432,-0.220486 -0.91639,-0.647677 -0.37207,-0.434082 -0.565,-1.054199 -0.18603,-0.620116 -0.18603,-1.419378 0,-0.923285 0.22737,-1.591633 0.23427,-0.675238 0.64768,-1.11621 0.41341,-0.440972 0.97841,-0.654567 0.56499,-0.213596 1.24023,-0.213596 0.27561,0 0.53744,0.04823 0.26871,0.04823 0.49609,0.130914 0.23427,0.08268 0.41341,0.186035 0.18604,0.103352 0.26183,0.179144 0.0758,0.07579 0.10335,0.130914 0.0344,0.04823 0.0482,0.130914 0.0207,0.08268 0.0276,0.206705 0.0138,0.117133 0.0138,0.289388 0,0.399631 -0.0689,0.564995 -0.0689,0.158474 -0.17914,0.158474 -0.11714,0 -0.24805,-0.09646 -0.13091,-0.09646 -0.31006,-0.213596 -0.17914,-0.117133 -0.42719,-0.213596 -0.24805,-0.09646 -0.59256,-0.09646 -0.67523,0 -1.03352,0.523654 -0.35829,0.516764 -0.35829,1.522731 0,0.496093 0.0896,0.875053 0.0896,0.378961 0.26183,0.633897 0.17914,0.254937 0.44097,0.385851 0.26872,0.124023 0.62011,0.124023 0.35829,0 0.61323,-0.103353 0.26183,-0.110243 0.45475,-0.241156 0.19293,-0.130914 0.32384,-0.234266 0.13092,-0.110243 0.22049,-0.110243 0.062,0 0.10335,0.03445 0.0413,0.03445 0.062,0.130913 0.0276,0.08957 0.0413,0.234266 0.0138,0.144694 0.0138,0.37207 z m 6.96598,0.985297 q 0,0.0689 -0.0413,0.124023 -0.0344,0.04823 -0.1378,0.08268 -0.0965,0.02756 -0.26872,0.04134 -0.17226,0.02067 -0.44786,0.02067 -0.2825,0 -0.46165,-0.01378 -0.17225,-0.01378 -0.28938,-0.04134 -0.11025,-0.03445 -0.17226,-0.08957 -0.062,-0.05512 -0.11024,-0.144694 l -2.04639,-3.238387 v 3.252168 q 0,0.0689 -0.0413,0.124023 -0.0413,0.04823 -0.14469,0.08268 -0.0965,0.03445 -0.26183,0.04823 -0.16536,0.02067 -0.4203,0.02067 -0.25494,0 -0.4203,-0.02067 -0.16537,-0.01378 -0.26872,-0.04823 -0.0965,-0.03445 -0.1378,-0.08268 -0.0413,-0.05512 -0.0413,-0.124023 v -9.060594 q 0,-0.0689 0.0413,-0.124024 0.0413,-0.05512 0.1378,-0.08957 0.10335,-0.04134 0.26872,-0.06201 0.16536,-0.02067 0.4203,-0.02067 0.25494,0 0.4203,0.02067 0.16537,0.02067 0.26183,0.06201 0.10335,0.03445 0.14469,0.08957 0.0413,0.05512 0.0413,0.124024 v 5.395015 l 1.81901,-2.446016 q 0.0551,-0.08268 0.12403,-0.144694 0.0689,-0.06201 0.17914,-0.09646 0.11713,-0.03445 0.2825,-0.04823 0.17225,-0.02067 0.43408,-0.02067 0.25494,0 0.42719,0.02067 0.17915,0.01378 0.2825,0.04823 0.11024,0.03445 0.15158,0.08957 0.0413,0.04823 0.0413,0.124023 0,0.103353 -0.0551,0.220486 -0.0482,0.117134 -0.15158,0.248047 l -1.79834,2.039495 2.08084,3.217717 q 0.0827,0.137803 0.11713,0.241156 0.0413,0.09646 0.0413,0.179145 z"
       id="text3805-1-1"
       style="font-weight:bold;font-size:14.1111px;font-family:Calibri;-inkscape-font-specification:'Calibri, Bold';fill:#ffffff;stroke:#000000;stroke-width:0.8"
       transform="rotate(47.06179)"
       aria-label="Feedback" />
    <path
       d="m 78.10497,169.51259 q 0,0.0758 -0.02756,0.13091 -0.02756,0.0482 -0.130914,0.0827 -0.103353,0.0344 -0.303168,0.0482 -0.199815,0.0138 -0.544325,0.0138 -0.289387,0 -0.461642,-0.0138 -0.172255,-0.0138 -0.275607,-0.0482 -0.09646,-0.0413 -0.137804,-0.0965 -0.04134,-0.062 -0.0689,-0.14469 l -0.799262,-1.99126 q -0.144693,-0.33762 -0.282497,-0.59945 -0.137804,-0.26183 -0.310059,-0.43408 -0.165364,-0.17915 -0.38585,-0.26872 -0.220486,-0.0896 -0.509874,-0.0896 H 73.30251 v 3.39686 q 0,0.0689 -0.04823,0.12402 -0.04134,0.0551 -0.144694,0.0896 -0.103353,0.0344 -0.275608,0.0551 -0.172254,0.0207 -0.440971,0.0207 -0.261827,0 -0.440972,-0.0207 -0.172255,-0.0207 -0.275608,-0.0551 -0.103352,-0.0345 -0.144694,-0.0896 -0.04134,-0.0551 -0.04134,-0.12402 v -8.09597 q 0,-0.30317 0.151584,-0.43408 0.158475,-0.1378 0.385851,-0.1378 h 2.308212 q 0.351399,0 0.578776,0.0138 0.227376,0.0138 0.413411,0.0344 0.537434,0.0758 0.964626,0.26182 0.434081,0.18604 0.730359,0.48921 0.303169,0.29628 0.461643,0.70969 0.158474,0.40652 0.158474,0.93706 0,0.44786 -0.117133,0.81993 -0.110243,0.36518 -0.330729,0.65457 -0.220486,0.28939 -0.544325,0.50299 -0.323838,0.21359 -0.73725,0.3445 0.199816,0.0965 0.372071,0.23427 0.179144,0.1378 0.330728,0.33762 0.158475,0.19293 0.296278,0.44786 0.137804,0.24805 0.268718,0.565 l 0.75103,1.75699 q 0.103353,0.26183 0.137804,0.38586 0.03445,0.11713 0.03445,0.18603 z m -2.335773,-6.04958 q 0,-0.44097 -0.199816,-0.74414 -0.199815,-0.30317 -0.654567,-0.42719 -0.137804,-0.0345 -0.316949,-0.0551 -0.172255,-0.0207 -0.482313,-0.0207 H 73.30251 v 2.5287 h 0.923285 q 0.38585,0 0.675238,-0.0896 0.289388,-0.0965 0.482313,-0.26183 0.192925,-0.17225 0.289388,-0.40652 0.09646,-0.23426 0.09646,-0.52365 z m 9.033033,2.79741 q 0,0.31695 -0.144694,0.46854 -0.137804,0.15158 -0.38585,0.15158 h -3.741371 q 0,0.39274 0.08957,0.71658 0.09646,0.31695 0.296278,0.54432 0.206706,0.22049 0.523654,0.33762 0.323839,0.11714 0.771701,0.11714 0.454752,0 0.799262,-0.062 0.344509,-0.0689 0.592556,-0.14469 0.254937,-0.0827 0.420301,-0.14469 0.165364,-0.0689 0.268717,-0.0689 0.06201,0 0.103353,0.0276 0.04134,0.0207 0.0689,0.0827 0.02756,0.062 0.03445,0.17914 0.01378,0.11025 0.01378,0.2825 0,0.15158 -0.0069,0.26183 -0.0069,0.10335 -0.02067,0.17914 -0.01378,0.0758 -0.04134,0.13092 -0.02756,0.0482 -0.07579,0.0965 -0.04134,0.0482 -0.241156,0.13091 -0.199816,0.0827 -0.509874,0.16537 -0.310058,0.0758 -0.709689,0.13091 -0.399631,0.062 -0.854383,0.062 -0.819932,0 -1.440049,-0.2067 -0.613226,-0.20671 -1.026638,-0.62701 -0.413411,-0.4203 -0.620116,-1.06109 -0.199816,-0.64079 -0.199816,-1.50206 0,-0.81993 0.213596,-1.4745 0.213596,-0.66146 0.620117,-1.11621 0.406521,-0.46164 0.985296,-0.7028 0.585666,-0.24116 1.316026,-0.24116 0.771701,0 1.316025,0.22738 0.551215,0.22738 0.902615,0.6339 0.351399,0.39963 0.516764,0.95084 0.165364,0.55122 0.165364,1.1989 z m -1.681205,-0.49609 q 0.02067,-0.73036 -0.296278,-1.14377 -0.310059,-0.4203 -0.964626,-0.4203 -0.330729,0 -0.578776,0.12402 -0.241156,0.12402 -0.406521,0.33762 -0.158474,0.20671 -0.248046,0.49609 -0.08268,0.2825 -0.09646,0.60634 z m 4.8438,3.74826 q 0,0.0689 -0.04134,0.12402 -0.04134,0.0482 -0.144693,0.0827 -0.09646,0.0344 -0.261827,0.0482 -0.165365,0.0207 -0.420302,0.0207 -0.254937,0 -0.420301,-0.0207 -0.165365,-0.0138 -0.268717,-0.0482 -0.09646,-0.0344 -0.137804,-0.0827 -0.04134,-0.0551 -0.04134,-0.12402 V 160.452 q 0,-0.0689 0.04134,-0.12403 0.04134,-0.0551 0.137804,-0.0896 0.103352,-0.0413 0.268717,-0.062 0.165364,-0.0207 0.420301,-0.0207 0.254937,0 0.420302,0.0207 0.165364,0.0207 0.261827,0.062 0.103352,0.0344 0.144693,0.0896 0.04134,0.0551 0.04134,0.12403 z m 7.406949,-3.25217 q 0,0.31695 -0.144694,0.46854 -0.137804,0.15158 -0.38585,0.15158 h -3.741371 q 0,0.39274 0.08957,0.71658 0.09646,0.31695 0.296278,0.54432 0.206706,0.22049 0.523654,0.33762 0.323839,0.11714 0.771701,0.11714 0.454752,0 0.799262,-0.062 0.344509,-0.0689 0.592556,-0.14469 0.254936,-0.0827 0.420301,-0.14469 0.165364,-0.0689 0.268717,-0.0689 0.06201,0 0.103353,0.0276 0.04134,0.0207 0.0689,0.0827 0.02756,0.062 0.03445,0.17914 0.01378,0.11025 0.01378,0.2825 0,0.15158 -0.0069,0.26183 -0.0069,0.10335 -0.02067,0.17914 -0.01378,0.0758 -0.04134,0.13092 -0.02756,0.0482 -0.07579,0.0965 -0.04134,0.0482 -0.241156,0.13091 -0.199816,0.0827 -0.509874,0.16537 -0.310058,0.0758 -0.709689,0.13091 -0.399631,0.062 -0.854383,0.062 -0.819932,0 -1.440049,-0.2067 -0.613227,-0.20671 -1.026638,-0.62701 -0.413411,-0.4203 -0.620116,-1.06109 -0.199816,-0.64079 -0.199816,-1.50206 0,-0.81993 0.213596,-1.4745 0.213596,-0.66146 0.620117,-1.11621 0.406521,-0.46164 0.985296,-0.7028 0.585666,-0.24116 1.316026,-0.24116 0.7717,0 1.316025,0.22738 0.551215,0.22738 0.902614,0.6339 0.3514,0.39963 0.516764,0.95084 0.165365,0.55122 0.165365,1.1989 z m -1.681205,-0.49609 q 0.02067,-0.73036 -0.296278,-1.14377 -0.310059,-0.4203 -0.964626,-0.4203 -0.330729,0 -0.578776,0.12402 -0.241157,0.12402 -0.406521,0.33762 -0.158474,0.20671 -0.248047,0.49609 -0.08268,0.2825 -0.09646,0.60634 z m 8.344011,3.76893 q 0,0.0965 -0.0689,0.15159 -0.0689,0.0551 -0.22048,0.0758 -0.1447,0.0276 -0.43408,0.0276 -0.31006,0 -0.45476,-0.0276 -0.1378,-0.0207 -0.19981,-0.0758 -0.0551,-0.0551 -0.0551,-0.15159 v -0.4892 q -0.37896,0.40652 -0.868167,0.63389 -0.482313,0.22738 -1.074869,0.22738 -0.489204,0 -0.902615,-0.13091 -0.406521,-0.12403 -0.709689,-0.37207 -0.296278,-0.25494 -0.461642,-0.62701 -0.165365,-0.37207 -0.165365,-0.86816 0,-0.53744 0.206706,-0.93018 0.213596,-0.39963 0.627007,-0.65457 0.420301,-0.26182 1.040418,-0.38585 0.620117,-0.12402 1.440049,-0.12402 h 0.599447 v -0.37207 q 0,-0.28939 -0.062,-0.50298 -0.0551,-0.22049 -0.19293,-0.36518 -0.130912,-0.1447 -0.358288,-0.2136 -0.220486,-0.0689 -0.551215,-0.0689 -0.434081,0 -0.778591,0.0965 -0.337619,0.0965 -0.599446,0.2136 -0.261827,0.11713 -0.440972,0.21359 -0.172254,0.0965 -0.282497,0.0965 -0.07579,0 -0.137804,-0.0482 -0.05512,-0.0482 -0.09646,-0.13781 -0.03445,-0.0896 -0.05512,-0.22048 -0.02067,-0.13092 -0.02067,-0.28939 0,-0.2136 0.03445,-0.33762 0.03445,-0.12402 0.130914,-0.22049 0.09646,-0.10335 0.337619,-0.22048 0.241156,-0.12403 0.564995,-0.22738 0.323839,-0.10335 0.702799,-0.16536 0.385851,-0.0689 0.792371,-0.0689 0.723469,0 1.233339,0.1447 0.51677,0.1378 0.8475,0.43408 0.33073,0.28939 0.48231,0.75103 0.15158,0.46164 0.15158,1.09554 z m -1.70187,-2.63205 h -0.661459 q -0.420301,0 -0.716579,0.062 -0.296278,0.062 -0.482313,0.18604 -0.186035,0.12402 -0.275608,0.30316 -0.08268,0.17226 -0.08268,0.39964 0,0.38585 0.241156,0.60633 0.248047,0.22049 0.682129,0.22049 0.36518,0 0.668348,-0.18604 0.310058,-0.18603 0.627008,-0.54432 z m 7.75835,0.87505 q 0,0.52366 -0.19982,0.92329 -0.19292,0.39963 -0.55121,0.66835 -0.35829,0.26871 -0.84749,0.39963 -0.48921,0.1378 -1.06109,0.1378 -0.34451,0 -0.66146,-0.0551 -0.31006,-0.0482 -0.55811,-0.12402 -0.24804,-0.0827 -0.41341,-0.16537 -0.16536,-0.0827 -0.24115,-0.15158 -0.0758,-0.0758 -0.11714,-0.22738 -0.0413,-0.15847 -0.0413,-0.46164 0,-0.19982 0.0138,-0.31695 0.0138,-0.12402 0.0413,-0.19292 0.0276,-0.0758 0.0689,-0.0965 0.0413,-0.0276 0.10335,-0.0276 0.0758,0 0.22048,0.0896 0.15159,0.0827 0.37207,0.18604 0.22049,0.10335 0.50988,0.19292 0.29628,0.0896 0.66835,0.0896 0.23426,0 0.41341,-0.0482 0.18603,-0.0482 0.31695,-0.13781 0.1378,-0.0896 0.2067,-0.22737 0.0689,-0.13781 0.0689,-0.31695 0,-0.20671 -0.13091,-0.3514 -0.12402,-0.15159 -0.33762,-0.26183 -0.2067,-0.11024 -0.47542,-0.2067 -0.26183,-0.0965 -0.54433,-0.2136 -0.2756,-0.11713 -0.54432,-0.26872 -0.26183,-0.15158 -0.47542,-0.37207 -0.20671,-0.22048 -0.33762,-0.53054 -0.12403,-0.31006 -0.12403,-0.74414 0,-0.44097 0.17226,-0.80615 0.17225,-0.37207 0.49609,-0.6339 0.32384,-0.26183 0.78548,-0.40652 0.46854,-0.1447 1.04731,-0.1447 0.28939,0 0.55811,0.0413 0.2756,0.0413 0.49609,0.10335 0.22048,0.062 0.37207,0.1378 0.15158,0.0689 0.21359,0.12403 0.0689,0.0482 0.0965,0.10335 0.0276,0.0482 0.0413,0.12402 0.0138,0.0689 0.0207,0.17915 0.0138,0.10335 0.0138,0.26182 0,0.18604 -0.0138,0.30317 -0.007,0.11713 -0.0345,0.18604 -0.0207,0.0689 -0.062,0.0965 -0.0413,0.0207 -0.0965,0.0207 -0.062,0 -0.19292,-0.0689 -0.13091,-0.0758 -0.33073,-0.15848 -0.19293,-0.0827 -0.45475,-0.15158 -0.25494,-0.0758 -0.58567,-0.0758 -0.23426,0 -0.40652,0.0482 -0.17225,0.0482 -0.2825,0.1378 -0.11024,0.0896 -0.16536,0.2136 -0.0551,0.11713 -0.0551,0.25493 0,0.2136 0.13091,0.35829 0.13091,0.1447 0.34451,0.25494 0.2136,0.11024 0.48231,0.20671 0.27561,0.0965 0.55122,0.21359 0.2825,0.11025 0.55121,0.26183 0.27561,0.15158 0.48921,0.37207 0.21359,0.22049 0.34451,0.53054 0.13091,0.30317 0.13091,0.72347 z m 6.97976,-1.51584 q 0,0.31695 -0.1447,0.46854 -0.1378,0.15158 -0.38585,0.15158 h -3.74137 q 0,0.39274 0.0896,0.71658 0.0965,0.31695 0.29628,0.54432 0.20671,0.22049 0.52365,0.33762 0.32384,0.11714 0.77171,0.11714 0.45475,0 0.79926,-0.062 0.34451,-0.0689 0.59255,-0.14469 0.25494,-0.0827 0.4203,-0.14469 0.16537,-0.0689 0.26872,-0.0689 0.062,0 0.10335,0.0276 0.0414,0.0207 0.0689,0.0827 0.0276,0.062 0.0345,0.17914 0.0138,0.11025 0.0138,0.2825 0,0.15158 -0.007,0.26183 -0.007,0.10335 -0.0207,0.17914 -0.0138,0.0758 -0.0413,0.13092 -0.0276,0.0482 -0.0758,0.0965 -0.0413,0.0482 -0.24115,0.13091 -0.19982,0.0827 -0.50988,0.16537 -0.31006,0.0758 -0.70969,0.13091 -0.39963,0.062 -0.85438,0.062 -0.81993,0 -1.44005,-0.2067 -0.61322,-0.20671 -1.02664,-0.62701 -0.41341,-0.4203 -0.62011,-1.06109 -0.19982,-0.64079 -0.19982,-1.50206 0,-0.81993 0.2136,-1.4745 0.21359,-0.66146 0.62012,-1.11621 0.40652,-0.46164 0.98529,-0.7028 0.58567,-0.24116 1.31603,-0.24116 0.7717,0 1.31602,0.22738 0.55122,0.22738 0.90262,0.6339 0.3514,0.39963 0.51676,0.95084 0.16537,0.55122 0.16537,1.1989 z m -1.68121,-0.49609 q 0.0207,-0.73036 -0.29628,-1.14377 -0.31006,-0.4203 -0.96462,-0.4203 -0.33073,0 -0.57878,0.12402 -0.24116,0.12402 -0.40652,0.33762 -0.15847,0.20671 -0.24805,0.49609 -0.0827,0.2825 -0.0965,0.60634 z"
       id="text3805-1-1-3"
       style="font-weight:bold;font-size:14.1111px;font-family:Calibri;-inkscape-font-specification:'Calibri, Bold';fill:#ffffff;stroke:#000000;stroke-width:0.8"
       inkscape:transform-center-x="3.9973563"
       inkscape:transform-center-y="1.6494566"
       transform="rotate(-38.50673)"
       aria-label="Release" />
    <path
       d="m -14.222726,171.13192 q 0,0.75103 -0.234266,1.32981 -0.234266,0.57878 -0.682128,0.97841 -0.447862,0.39274 -1.10243,0.59944 -0.647678,0.20671 -1.529621,0.20671 h -0.74414 v 2.84564 q 0,0.0689 -0.04823,0.12403 -0.04134,0.0551 -0.144694,0.0896 -0.103352,0.0344 -0.275607,0.0551 -0.172255,0.0207 -0.440972,0.0207 -0.261827,0 -0.440972,-0.0207 -0.172254,-0.0207 -0.275607,-0.0551 -0.103353,-0.0344 -0.144694,-0.0896 -0.04134,-0.0551 -0.04134,-0.12403 v -8.02017 q 0,-0.32384 0.165364,-0.48231 0.172255,-0.16537 0.447862,-0.16537 h 2.101507 q 0.316948,0 0.599446,0.0276 0.289388,0.0207 0.689019,0.10335 0.39963,0.0758 0.806151,0.28939 0.413412,0.2136 0.702799,0.54433 0.289388,0.32384 0.440972,0.76481 0.151584,0.43408 0.151584,0.9784 z m -1.894801,0.13092 q 0,-0.46854 -0.165364,-0.7717 -0.165365,-0.30317 -0.406521,-0.44787 -0.241157,-0.14469 -0.509874,-0.17914 -0.261827,-0.0413 -0.544325,-0.0413 h -0.7717 v 3.02479 h 0.813042 q 0.434081,0 0.723469,-0.11713 0.296278,-0.11714 0.482313,-0.32384 0.186035,-0.2136 0.282498,-0.50299 0.09646,-0.29627 0.09646,-0.64078 z m 8.1579801,5.86355 q 0,0.0965 -0.068902,0.15158 -0.068902,0.0551 -0.2204859,0.0758 -0.1446939,0.0276 -0.4340817,0.0276 -0.3100584,0 -0.4547523,-0.0276 -0.1378037,-0.0207 -0.1998154,-0.0758 -0.055121,-0.0551 -0.055121,-0.15158 v -0.48921 q -0.3789602,0.40652 -0.8681634,0.6339 -0.482313,0.22738 -1.074869,0.22738 -0.489203,0 -0.902614,-0.13092 -0.406521,-0.12402 -0.709689,-0.37207 -0.296278,-0.25494 -0.461643,-0.62701 -0.165364,-0.37207 -0.165364,-0.86816 0,-0.53743 0.206705,-0.93017 0.213596,-0.39963 0.627007,-0.65457 0.420302,-0.26183 1.040418,-0.38585 0.620117,-0.12402 1.440049,-0.12402 h 0.5994462 v -0.37207 q 0,-0.28939 -0.062012,-0.50299 -0.055122,-0.22048 -0.1929252,-0.36518 -0.1309133,-0.14469 -0.3582893,-0.21359 -0.220486,-0.0689 -0.551215,-0.0689 -0.434082,0 -0.778591,0.0965 -0.337619,0.0965 -0.599446,0.21359 -0.261827,0.11714 -0.440972,0.2136 -0.172255,0.0965 -0.282498,0.0965 -0.07579,0 -0.137804,-0.0482 -0.05512,-0.0482 -0.09646,-0.1378 -0.03445,-0.0896 -0.05512,-0.22049 -0.02067,-0.13091 -0.02067,-0.28939 0,-0.21359 0.03445,-0.33762 0.03445,-0.12402 0.130913,-0.22048 0.09646,-0.10336 0.337619,-0.22049 0.241157,-0.12402 0.564996,-0.22738 0.323838,-0.10335 0.702799,-0.16536 0.38585,-0.0689 0.792371,-0.0689 0.7234694,0 1.2333431,0.14469 0.516764,0.13781 0.8474929,0.43408 0.3307289,0.28939 0.482313,0.75103 0.1515841,0.46165 0.1515841,1.09554 z m -1.7018759,-2.63206 h -0.6614582 q -0.420301,0 -0.716579,0.062 -0.296278,0.062 -0.482313,0.18603 -0.186035,0.12402 -0.275607,0.30317 -0.08268,0.17225 -0.08268,0.39963 0,0.38585 0.241157,0.60634 0.248047,0.22048 0.682128,0.22048 0.36518,0 0.668348,-0.18603 0.3100587,-0.18604 0.6270072,-0.54433 z m 8.0821873,1.63298 q 0,0.17914 -0.01378,0.30317 -0.00689,0.11713 -0.027561,0.19981 -0.01378,0.0827 -0.041341,0.13781 -0.020671,0.0482 -0.1033527,0.13091 -0.082682,0.0758 -0.2824977,0.19292 -0.1998153,0.11025 -0.4547522,0.19982 -0.2549369,0.0896 -0.558105,0.14469 -0.296278,0.0551 -0.6132266,0.0551 -0.7096891,0 -1.2609039,-0.22049 -0.5443247,-0.22049 -0.9163947,-0.64768 -0.3720701,-0.43408 -0.5649953,-1.0542 -0.186035,-0.62011 -0.186035,-1.41937 0,-0.92329 0.2273762,-1.59164 0.2342663,-0.67524 0.6476774,-1.11621 0.4134112,-0.44097 0.9784064,-0.65457 0.5649952,-0.21359 1.2402334,-0.21359 0.2756074,0 0.5374345,0.0482 0.2687172,0.0482 0.4960933,0.13091 0.2342663,0.0827 0.4134112,0.18604 0.186035,0.10335 0.261827,0.17914 0.075792,0.0758 0.1033528,0.13092 0.034451,0.0482 0.048231,0.13091 0.020671,0.0827 0.027561,0.20671 0.01378,0.11713 0.01378,0.28938 0,0.39963 -0.068902,0.565 -0.068902,0.15847 -0.1791449,0.15847 -0.1171331,0 -0.2480466,-0.0965 -0.1309136,-0.0965 -0.3100584,-0.21359 -0.1791448,-0.11714 -0.4271915,-0.2136 -0.2480467,-0.0965 -0.592556,-0.0965 -0.6752382,0 -1.0335278,0.52365 -0.3582897,0.51676 -0.3582897,1.52273 0,0.4961 0.089572,0.87506 0.089573,0.37896 0.2618271,0.63389 0.1791448,0.25494 0.4409719,0.38585 0.2687172,0.12403 0.6201167,0.12403 0.3582896,0 0.6132265,-0.10336 0.2618271,-0.11024 0.4547523,-0.24115 0.1929252,-0.13092 0.3238387,-0.23427 0.1309135,-0.11024 0.2204859,-0.11024 0.062012,0 0.1033528,0.0344 0.041341,0.0344 0.062012,0.13091 0.027561,0.0896 0.041341,0.23427 0.01378,0.14469 0.01378,0.37207 z m 6.9659786,0.98529 q 0,0.0689 -0.041341,0.12403 -0.034451,0.0482 -0.1378037,0.0827 -0.096463,0.0276 -0.2687172,0.0413 -0.1722547,0.0207 -0.4478621,0.0207 -0.2824976,0 -0.4616425,-0.0138 -0.1722546,-0.0138 -0.2893878,-0.0413 -0.1102429,-0.0344 -0.1722546,-0.0896 -0.062012,-0.0551 -0.110243,-0.1447 L 1.411106,173.85355 v 3.25216 q 0,0.0689 -0.041341,0.12403 -0.041341,0.0482 -0.1446939,0.0827 -0.096463,0.0344 -0.26182706,0.0482 -0.16536446,0.0207 -0.42030133,0.0207 -0.25493687,0 -0.42030132,-0.0207 -0.16536446,-0.0138 -0.26871724,-0.0482 -0.0964626,-0.0344 -0.13780372,-0.0827 -0.0413411,-0.0551 -0.0413411,-0.12403 v -9.06059 q 0,-0.0689 0.0413411,-0.12402 0.0413411,-0.0551 0.13780372,-0.0896 0.10335278,-0.0413 0.26871724,-0.062 0.16536445,-0.0207 0.42030132,-0.0207 0.25493687,0 0.42030133,0.0207 0.16536446,0.0207 0.26182706,0.062 0.1033528,0.0345 0.1446939,0.0896 0.041341,0.0551 0.041341,0.12402 v 5.39502 l 1.819009,-2.44602 q 0.055121,-0.0827 0.1240234,-0.14469 0.068902,-0.062 0.1791448,-0.0965 0.1171331,-0.0344 0.2824976,-0.0482 0.1722546,-0.0207 0.4340817,-0.0207 0.2549369,0 0.4271915,0.0207 0.1791448,0.0138 0.2824976,0.0482 0.110243,0.0344 0.1515841,0.0896 0.041341,0.0482 0.041341,0.12402 0,0.10335 -0.055121,0.22049 -0.048231,0.11713 -0.1515841,0.24804 l -1.7983384,2.0395 2.080836,3.21771 q 0.082682,0.13781 0.1171332,0.24116 0.041341,0.0965 0.041341,0.17914 z m 6.1253749,0.0138 q 0,0.0965 -0.0689,0.15158 -0.0689,0.0551 -0.220486,0.0758 -0.144694,0.0276 -0.434082,0.0276 -0.310058,0 -0.454752,-0.0276 -0.137803,-0.0207 -0.199815,-0.0758 -0.05512,-0.0551 -0.05512,-0.15158 v -0.48921 q -0.3789599,0.40652 -0.868163,0.6339 -0.482313,0.22738 -1.074869,0.22738 -0.4892032,0 -0.9026143,-0.13092 -0.406521,-0.12402 -0.7096891,-0.37207 -0.296278,-0.25494 -0.4616425,-0.62701 -0.1653644,-0.37207 -0.1653644,-0.86816 0,-0.53743 0.2067055,-0.93017 0.2135958,-0.39963 0.6270069,-0.65457 0.4203014,-0.26183 1.0404181,-0.38585 0.6201167,-0.12402 1.4400488,-0.12402 h 0.5994461 v -0.37207 q 0,-0.28939 -0.062012,-0.50299 -0.055121,-0.22048 -0.1929252,-0.36518 -0.1309135,-0.14469 -0.3582896,-0.21359 -0.220486,-0.0689 -0.5512149,-0.0689 -0.4340817,0 -0.7785909,0.0965 -0.3376191,0.0965 -0.5994462,0.21359 -0.261827,0.11714 -0.4409719,0.2136 -0.1722546,0.0965 -0.2824976,0.0965 -0.075792,0 -0.1378037,-0.0482 -0.055122,-0.0482 -0.096463,-0.1378 -0.034451,-0.0896 -0.055122,-0.22049 -0.02067,-0.13091 -0.02067,-0.28939 0,-0.21359 0.034451,-0.33762 0.034451,-0.12402 0.1309135,-0.22048 0.096463,-0.10336 0.3376191,-0.22049 0.2411565,-0.12402 0.5649952,-0.22738 0.3238388,-0.10335 0.702799,-0.16536 0.3858504,-0.0689 0.7923713,-0.0689 0.7234695,0 1.2333432,0.14469 0.516764,0.13781 0.847493,0.43408 0.330729,0.28939 0.482313,0.75103 0.151584,0.46165 0.151584,1.09554 z M 9.8102421,174.49433 H 9.1487843 q -0.4203013,0 -0.7165793,0.062 -0.296278,0.062 -0.482313,0.18603 -0.186035,0.12402 -0.2756074,0.30317 -0.082682,0.17225 -0.082682,0.39963 0,0.38585 0.2411565,0.60634 0.2480467,0.22048 0.6821284,0.22048 0.3651798,0 0.668348,-0.18603 0.3100584,-0.18604 0.6270069,-0.54433 z m 8.9710209,-3.10747 q 0,0.33073 -0.07579,0.4892 -0.07579,0.15848 -0.186035,0.15848 h -0.72347 q 0.151584,0.16536 0.213596,0.37896 0.0689,0.2067 0.0689,0.43408 0,0.53743 -0.179145,0.95774 -0.179145,0.41341 -0.516764,0.70279 -0.330729,0.2825 -0.806152,0.43409 -0.468532,0.14469 -1.047308,0.14469 -0.296278,0 -0.564995,-0.0689 -0.268717,-0.0758 -0.413411,-0.17226 -0.08268,0.0896 -0.151584,0.2136 -0.06201,0.12402 -0.06201,0.27561 0,0.19981 0.172255,0.33073 0.179145,0.12402 0.496093,0.1378 l 1.49517,0.0551 q 0.523655,0.0207 0.930175,0.15159 0.413412,0.12402 0.689019,0.35828 0.282498,0.22738 0.427192,0.55122 0.151584,0.32384 0.151584,0.73725 0,0.45475 -0.199816,0.85438 -0.199815,0.40652 -0.599446,0.7028 -0.399631,0.29628 -1.005967,0.46853 -0.599446,0.17226 -1.405598,0.17226 -0.785481,0 -1.343586,-0.12402 -0.551215,-0.12403 -0.909505,-0.34451 -0.351399,-0.22049 -0.516764,-0.53055 -0.158474,-0.30317 -0.158474,-0.66835 0,-0.22737 0.05512,-0.43408 0.06201,-0.2067 0.172254,-0.39963 0.117133,-0.18603 0.282498,-0.35829 0.165364,-0.17225 0.37896,-0.33073 -0.296278,-0.15847 -0.461642,-0.42719 -0.158475,-0.27561 -0.158475,-0.59944 0,-0.40653 0.186035,-0.73725 0.186035,-0.33762 0.482313,-0.60634 -0.241156,-0.24116 -0.38585,-0.57878 -0.144694,-0.33762 -0.144694,-0.8406 0,-0.53743 0.186035,-0.95774 0.192925,-0.42719 0.530544,-0.71657 0.33762,-0.29628 0.806152,-0.44787 0.468533,-0.15847 1.033528,-0.15847 0.289388,0 0.551215,0.0344 0.268717,0.0344 0.496093,0.0965 h 1.949923 q 0.117133,0 0.186035,0.15159 0.07579,0.15158 0.07579,0.50987 z m -2.22553,1.45383 q 0,-0.49609 -0.275608,-0.7717 -0.275607,-0.27561 -0.778591,-0.27561 -0.254936,0 -0.447862,0.0896 -0.192925,0.0827 -0.323838,0.23427 -0.124024,0.14469 -0.186035,0.34451 -0.06201,0.19292 -0.06201,0.40652 0,0.46853 0.275607,0.74414 0.275608,0.26872 0.764811,0.26872 0.261827,0 0.454752,-0.0827 0.192925,-0.0827 0.316949,-0.22738 0.130913,-0.14469 0.192925,-0.33073 0.0689,-0.19292 0.0689,-0.39963 z m 0.406521,4.90581 q 0,-0.31006 -0.248047,-0.47542 -0.248047,-0.16537 -0.682128,-0.17915 l -1.233343,-0.0344 q -0.179145,0.13092 -0.289388,0.25494 -0.103353,0.11713 -0.172255,0.22738 -0.06201,0.11024 -0.08268,0.21359 -0.02067,0.10336 -0.02067,0.2136 0,0.34451 0.34451,0.52365 0.351399,0.17915 0.985296,0.17915 0.392741,0 0.661458,-0.0827 0.268717,-0.0758 0.434082,-0.2067 0.165364,-0.13091 0.234266,-0.29628 0.0689,-0.15847 0.0689,-0.33762 z m 8.4956,-3.89295 q 0,0.31695 -0.144693,0.46853 -0.137804,0.15158 -0.385851,0.15158 h -3.741371 q 0,0.39274 0.08957,0.71658 0.09646,0.31695 0.296278,0.54433 0.206705,0.22048 0.523654,0.33762 0.323839,0.11713 0.771701,0.11713 0.454752,0 0.799261,-0.062 0.344509,-0.0689 0.592556,-0.1447 0.254937,-0.0827 0.420301,-0.14469 0.165365,-0.0689 0.268718,-0.0689 0.06201,0 0.103352,0.0276 0.04134,0.0207 0.0689,0.0827 0.02756,0.062 0.03445,0.17915 0.01378,0.11024 0.01378,0.28249 0,0.15159 -0.0069,0.26183 -0.0069,0.10335 -0.02067,0.17915 -0.01378,0.0758 -0.04134,0.13091 -0.02756,0.0482 -0.07579,0.0965 -0.04134,0.0482 -0.241157,0.13092 -0.199815,0.0827 -0.509874,0.16536 -0.310058,0.0758 -0.709689,0.13091 -0.39963,0.062 -0.854383,0.062 -0.819932,0 -1.440048,-0.20671 -0.613227,-0.20671 -1.026638,-0.62701 -0.413411,-0.4203 -0.620117,-1.06109 -0.199815,-0.64078 -0.199815,-1.50206 0,-0.81993 0.213596,-1.4745 0.213595,-0.66145 0.620116,-1.11621 0.406521,-0.46164 0.985297,-0.70279 0.585666,-0.24116 1.316025,-0.24116 0.771701,0 1.316026,0.22737 0.551215,0.22738 0.902614,0.6339 0.351399,0.39963 0.516764,0.95085 0.165364,0.55121 0.165364,1.19889 z m -1.681205,-0.4961 q 0.02067,-0.73036 -0.296278,-1.14377 -0.310058,-0.4203 -0.964626,-0.4203 -0.330729,0 -0.578775,0.12402 -0.241157,0.12403 -0.406521,0.33762 -0.158475,0.20671 -0.248047,0.4961 -0.08268,0.2825 -0.09646,0.60633 z"
       id="text3805-1-1-3-4"
       style="font-weight:bold;font-size:14.1111px;font-family:Calibri;-inkscape-font-specification:'Calibri, Bold';fill:#ffffff;stroke:#000000;stroke-width:0.8"
       inkscape:transform-center-x="0.71912833"
       inkscape:transform-center-y="-2.5169491"
       transform="rotate(-39.636235)"
       aria-label="Package" />
    <path
       d="m 118.1468,73.568874 q 0,0.751031 -0.23427,1.329806 -0.23426,0.578776 -0.68212,0.978407 -0.44787,0.39274 -1.10243,0.599446 -0.64768,0.206705 -1.52963,0.206705 h -0.74414 v 2.845647 q 0,0.0689 -0.0482,0.124023 -0.0413,0.05512 -0.14469,0.08957 -0.10335,0.03445 -0.27561,0.05512 -0.17225,0.02067 -0.44097,0.02067 -0.26183,0 -0.44097,-0.02067 -0.17226,-0.02067 -0.27561,-0.05512 -0.10335,-0.03445 -0.14469,-0.08957 -0.0413,-0.05512 -0.0413,-0.124023 v -8.020176 q 0,-0.323839 0.16536,-0.482313 0.17225,-0.165364 0.44786,-0.165364 h 2.10151 q 0.31695,0 0.59944,0.02756 0.28939,0.02067 0.68902,0.103353 0.39963,0.07579 0.80616,0.289388 0.41341,0.213596 0.70279,0.544325 0.28939,0.323838 0.44098,0.76481 0.15158,0.434082 0.15158,0.978406 z m -1.8948,0.130914 q 0,-0.468533 -0.16537,-0.771701 -0.16536,-0.303168 -0.40652,-0.447862 -0.24115,-0.144694 -0.50987,-0.179145 -0.26183,-0.04134 -0.54432,-0.04134 h -0.77171 v 3.024792 h 0.81305 q 0.43408,0 0.72347,-0.117133 0.29627,-0.117134 0.48231,-0.323839 0.18603,-0.213596 0.2825,-0.502984 0.0965,-0.296278 0.0965,-0.640787 z m 4.93337,5.842877 q 0,0.0689 -0.0413,0.124024 -0.0413,0.04823 -0.14469,0.08268 -0.0965,0.03445 -0.26183,0.04823 -0.16536,0.02067 -0.4203,0.02067 -0.25494,0 -0.4203,-0.02067 -0.16537,-0.01378 -0.26872,-0.04823 -0.0965,-0.03445 -0.1378,-0.08268 -0.0413,-0.05512 -0.0413,-0.124024 v -9.060594 q 0,-0.0689 0.0413,-0.124023 0.0413,-0.05512 0.1378,-0.08957 0.10335,-0.04134 0.26872,-0.06201 0.16536,-0.02067 0.4203,-0.02067 0.25494,0 0.4203,0.02067 0.16536,0.02067 0.26183,0.06201 0.10335,0.03445 0.14469,0.08957 0.0413,0.05512 0.0413,0.124023 z m 6.96598,0.02067 q 0,0.09646 -0.0689,0.151584 -0.0689,0.05512 -0.22049,0.07579 -0.14469,0.02756 -0.43408,0.02756 -0.31006,0 -0.45475,-0.02756 -0.13781,-0.02067 -0.19982,-0.07579 -0.0551,-0.05512 -0.0551,-0.151584 v -0.489203 q -0.37896,0.406521 -0.86816,0.633897 -0.48232,0.227376 -1.07487,0.227376 -0.4892,0 -0.90262,-0.130913 -0.40652,-0.124024 -0.70968,-0.372071 -0.29628,-0.254936 -0.46165,-0.627006 -0.16536,-0.37207 -0.16536,-0.868164 0,-0.537434 0.2067,-0.930175 0.2136,-0.399631 0.62701,-0.654568 0.4203,-0.261827 1.04042,-0.38585 0.62012,-0.124023 1.44005,-0.124023 h 0.59944 v -0.37207 q 0,-0.289388 -0.062,-0.502984 -0.0551,-0.220486 -0.19292,-0.36518 -0.13092,-0.144694 -0.35829,-0.213595 -0.22049,-0.0689 -0.55122,-0.0689 -0.43408,0 -0.77859,0.09646 -0.33762,0.09646 -0.59944,0.213596 -0.26183,0.117133 -0.44098,0.213596 -0.17225,0.09646 -0.28249,0.09646 -0.0758,0 -0.13781,-0.04823 -0.0551,-0.04823 -0.0965,-0.137804 -0.0344,-0.08957 -0.0551,-0.220486 -0.0207,-0.130913 -0.0207,-0.289387 0,-0.213596 0.0345,-0.337619 0.0344,-0.124024 0.13091,-0.220486 0.0965,-0.103353 0.33762,-0.220486 0.24116,-0.124024 0.565,-0.227376 0.32383,-0.103353 0.7028,-0.165365 0.38585,-0.0689 0.79237,-0.0689 0.72347,0 1.23334,0.144694 0.51676,0.137804 0.84749,0.434082 0.33073,0.289388 0.48232,0.75103 0.15158,0.461643 0.15158,1.09554 z m -1.70188,-2.632051 h -0.66145 q -0.42031,0 -0.71658,0.06201 -0.29628,0.06201 -0.48232,0.186035 -0.18603,0.124023 -0.2756,0.303168 -0.0827,0.172255 -0.0827,0.399631 0,0.38585 0.24116,0.606336 0.24805,0.220486 0.68213,0.220486 0.36518,0 0.66835,-0.186035 0.31006,-0.186035 0.627,-0.544325 z m 9.30175,2.61138 q 0,0.0689 -0.0413,0.124024 -0.0413,0.04823 -0.1378,0.08268 -0.0965,0.03445 -0.26872,0.04823 -0.16536,0.02067 -0.41341,0.02067 -0.25494,0 -0.42719,-0.02067 -0.16536,-0.01378 -0.26183,-0.04823 -0.0965,-0.03445 -0.1378,-0.08268 -0.0413,-0.05512 -0.0413,-0.124024 v -3.507104 q 0,-0.447862 -0.0689,-0.702799 -0.062,-0.254937 -0.18604,-0.434082 -0.12402,-0.186035 -0.32384,-0.282497 -0.19292,-0.103353 -0.45475,-0.103353 -0.33073,0 -0.66835,0.241156 -0.33762,0.241157 -0.7028,0.702799 v 4.08588 q 0,0.0689 -0.0413,0.124024 -0.0413,0.04823 -0.14469,0.08268 -0.0965,0.03445 -0.26183,0.04823 -0.16536,0.02067 -0.4203,0.02067 -0.25494,0 -0.4203,-0.02067 -0.16537,-0.01378 -0.26872,-0.04823 -0.0965,-0.03445 -0.1378,-0.08268 -0.0413,-0.05512 -0.0413,-0.124024 V 73.39662 q 0,-0.0689 0.0345,-0.117133 0.0344,-0.05512 0.12402,-0.08957 0.0896,-0.03445 0.22738,-0.04823 0.14469,-0.02067 0.35829,-0.02067 0.22048,0 0.36518,0.02067 0.14469,0.01378 0.22048,0.04823 0.0827,0.03445 0.11714,0.08957 0.0344,0.04823 0.0344,0.117133 v 0.709689 q 0.50987,-0.551215 1.03352,-0.826822 0.53055,-0.275608 1.10243,-0.275608 0.62701,0 1.0542,0.206706 0.43408,0.206705 0.69591,0.564995 0.26872,0.3514 0.38585,0.826822 0.11713,0.475423 0.11713,1.143771 z"
       id="text3805-1-1-8"
       style="font-weight:bold;font-size:14.1111px;font-family:Calibri;-inkscape-font-specification:'Calibri, Bold';fill:#ffffff;stroke:#000000;stroke-width:0.8"
       aria-label="Plan" />
    <path
       d="m 227.34509,109.54877 q 0,1.10932 -0.27561,1.98438 -0.27561,0.87505 -0.81993,1.48828 -0.54433,0.60633 -1.35048,0.93017 -0.79926,0.31695 -1.85346,0.31695 -1.04042,0 -1.81901,-0.26872 -0.7717,-0.2756 -1.28846,-0.83371 -0.51677,-0.5581 -0.77859,-1.41938 -0.25494,-0.86127 -0.25494,-2.03949 0,-1.08176 0.27561,-1.94303 0.2756,-0.86817 0.81993,-1.4745 0.54432,-0.60634 1.34358,-0.93018 0.80616,-0.32384 1.86724,-0.32384 1.01286,0 1.78456,0.26872 0.77859,0.26872 1.29536,0.82682 0.52365,0.55811 0.78548,1.41249 0.26872,0.84749 0.26872,2.00504 z m -1.9017,0.0965 q 0,-0.7028 -0.11024,-1.27469 -0.11024,-0.57877 -0.37896,-0.98529 -0.26183,-0.41342 -0.7028,-0.6339 -0.44097,-0.22738 -1.10243,-0.22738 -0.66835,0 -1.11621,0.25494 -0.44786,0.24805 -0.72347,0.66835 -0.2756,0.4203 -0.39274,0.98529 -0.11024,0.55811 -0.11024,1.18512 0,0.73036 0.11024,1.31602 0.11025,0.57878 0.37207,0.99219 0.26183,0.41341 0.7028,0.6339 0.44097,0.21359 1.10932,0.21359 0.66835,0 1.11621,-0.24805 0.44786,-0.24804 0.72347,-0.67523 0.27561,-0.4272 0.38585,-0.99219 0.11713,-0.57189 0.11713,-1.21267 z m 9.50846,1.06798 q 0,0.81993 -0.17914,1.48139 -0.17226,0.65456 -0.50988,1.11621 -0.33762,0.46164 -0.8406,0.70968 -0.50298,0.24805 -1.15066,0.24805 -0.26872,0 -0.4961,-0.0551 -0.22048,-0.0482 -0.43408,-0.15158 -0.2067,-0.11025 -0.41341,-0.26872 -0.2067,-0.15848 -0.42719,-0.37207 v 2.89388 q 0,0.0689 -0.0413,0.12402 -0.0413,0.0551 -0.14469,0.0896 -0.0965,0.0413 -0.26183,0.062 -0.16537,0.0207 -0.4203,0.0207 -0.25494,0 -0.4203,-0.0207 -0.16537,-0.0207 -0.26872,-0.062 -0.0965,-0.0345 -0.13781,-0.0896 -0.0413,-0.0551 -0.0413,-0.12402 v -8.58518 q 0,-0.0689 0.0344,-0.11713 0.0345,-0.0551 0.11714,-0.0896 0.0896,-0.0345 0.22737,-0.0482 0.1447,-0.0207 0.35829,-0.0207 0.20671,0 0.34451,0.0207 0.1447,0.0138 0.22738,0.0482 0.0896,0.0344 0.12402,0.0896 0.0344,0.0482 0.0344,0.11713 v 0.72347 q 0.26872,-0.2756 0.52366,-0.48231 0.26182,-0.21359 0.53054,-0.3514 0.26872,-0.14469 0.55122,-0.21359 0.28938,-0.0689 0.61322,-0.0689 0.67524,0 1.15066,0.26872 0.47543,0.26183 0.7717,0.72347 0.30317,0.46164 0.44098,1.07487 0.1378,0.61323 0.1378,1.30914 z m -1.80523,0.12402 q 0,-0.39274 -0.062,-0.75103 -0.0551,-0.36518 -0.19982,-0.64768 -0.1378,-0.2825 -0.37207,-0.44786 -0.22737,-0.17226 -0.57188,-0.17226 -0.17226,0 -0.34451,0.0551 -0.16536,0.0482 -0.34451,0.16536 -0.17225,0.11713 -0.35829,0.30317 -0.18603,0.18603 -0.39274,0.46164 v 2.02572 q 0.36518,0.46164 0.69591,0.71657 0.33073,0.24805 0.68902,0.24805 0.33762,0 0.57188,-0.17225 0.24116,-0.17226 0.39274,-0.44787 0.15159,-0.28249 0.22049,-0.63389 0.0758,-0.3514 0.0758,-0.7028 z m 8.86767,-0.2136 q 0,0.31695 -0.14469,0.46854 -0.13781,0.15158 -0.38585,0.15158 h -3.74137 q 0,0.39274 0.0896,0.71658 0.0965,0.31695 0.29628,0.54432 0.2067,0.22049 0.52365,0.33762 0.32384,0.11714 0.7717,0.11714 0.45475,0 0.79926,-0.062 0.34451,-0.0689 0.59256,-0.14469 0.25494,-0.0827 0.4203,-0.14469 0.16536,-0.0689 0.26872,-0.0689 0.062,0 0.10335,0.0276 0.0413,0.0207 0.0689,0.0827 0.0276,0.062 0.0344,0.17914 0.0138,0.11025 0.0138,0.2825 0,0.15158 -0.007,0.26183 -0.007,0.10335 -0.0207,0.17914 -0.0138,0.0758 -0.0413,0.13092 -0.0276,0.0482 -0.0758,0.0965 -0.0413,0.0482 -0.24116,0.13091 -0.19981,0.0827 -0.50987,0.16537 -0.31006,0.0758 -0.70969,0.13091 -0.39963,0.062 -0.85438,0.062 -0.81994,0 -1.44005,-0.2067 -0.61323,-0.20671 -1.02664,-0.62701 -0.41341,-0.4203 -0.62012,-1.06109 -0.19981,-0.64079 -0.19981,-1.50206 0,-0.81993 0.21359,-1.4745 0.2136,-0.66146 0.62012,-1.11621 0.40652,-0.46164 0.9853,-0.7028 0.58566,-0.24116 1.31602,-0.24116 0.7717,0 1.31603,0.22738 0.55121,0.22738 0.90261,0.6339 0.3514,0.39963 0.51677,0.95084 0.16536,0.55122 0.16536,1.1989 z m -1.6812,-0.49609 q 0.0207,-0.73036 -0.29628,-1.14377 -0.31006,-0.4203 -0.96463,-0.4203 -0.33073,0 -0.57877,0.12402 -0.24116,0.12402 -0.40652,0.33762 -0.15848,0.20671 -0.24805,0.49609 -0.0827,0.2825 -0.0965,0.60634 z m 7.05555,-1.8259 q 0,0.24805 -0.0138,0.40652 -0.0138,0.15848 -0.0413,0.24805 -0.0276,0.0896 -0.0758,0.12402 -0.0413,0.0344 -0.11024,0.0344 -0.0551,0 -0.12402,-0.0207 -0.0689,-0.0276 -0.15848,-0.0551 -0.0827,-0.0276 -0.18603,-0.0482 -0.10336,-0.0276 -0.22738,-0.0276 -0.14469,0 -0.28939,0.062 -0.14469,0.0551 -0.30317,0.17914 -0.15158,0.12403 -0.32383,0.33073 -0.16537,0.20671 -0.35829,0.50988 v 3.83094 q 0,0.0689 -0.0413,0.12402 -0.0413,0.0482 -0.14469,0.0827 -0.0965,0.0344 -0.26183,0.0482 -0.16536,0.0207 -0.4203,0.0207 -0.25493,0 -0.4203,-0.0207 -0.16536,-0.0138 -0.26872,-0.0482 -0.0965,-0.0345 -0.1378,-0.0827 -0.0413,-0.0551 -0.0413,-0.12402 v -6.14605 q 0,-0.0689 0.0344,-0.11713 0.0344,-0.0551 0.12402,-0.0896 0.0896,-0.0345 0.22738,-0.0482 0.14469,-0.0207 0.35829,-0.0207 0.22048,0 0.36518,0.0207 0.14469,0.0138 0.22048,0.0482 0.0827,0.0344 0.11714,0.0896 0.0345,0.0482 0.0345,0.11713 v 0.76482 q 0.24116,-0.34451 0.45475,-0.565 0.2136,-0.22738 0.40652,-0.35829 0.19293,-0.13091 0.38585,-0.17914 0.19293,-0.0551 0.38585,-0.0551 0.0896,0 0.19293,0.0138 0.10335,0.007 0.21359,0.0345 0.11025,0.0207 0.19293,0.0551 0.0827,0.0276 0.11713,0.062 0.0413,0.0344 0.0551,0.0758 0.0207,0.0413 0.0345,0.11713 0.0138,0.0689 0.0207,0.2136 0.007,0.14469 0.007,0.39274 z m 5.99446,5.59483 q 0,0.0965 -0.0689,0.15159 -0.0689,0.0551 -0.22049,0.0758 -0.14469,0.0276 -0.43408,0.0276 -0.31006,0 -0.45475,-0.0276 -0.13781,-0.0207 -0.19982,-0.0758 -0.0551,-0.0551 -0.0551,-0.15159 v -0.4892 q -0.37896,0.40652 -0.86816,0.6339 -0.48232,0.22737 -1.07487,0.22737 -0.48921,0 -0.90262,-0.13091 -0.40652,-0.12403 -0.70969,-0.37207 -0.29628,-0.25494 -0.46164,-0.62701 -0.16536,-0.37207 -0.16536,-0.86816 0,-0.53744 0.2067,-0.93018 0.2136,-0.39963 0.62701,-0.65457 0.4203,-0.26182 1.04042,-0.38585 0.62011,-0.12402 1.44005,-0.12402 h 0.59944 v -0.37207 q 0,-0.28939 -0.062,-0.50298 -0.0551,-0.22049 -0.19293,-0.36518 -0.13091,-0.1447 -0.35829,-0.2136 -0.22048,-0.0689 -0.55121,-0.0689 -0.43408,0 -0.77859,0.0965 -0.33762,0.0965 -0.59945,0.2136 -0.26182,0.11713 -0.44097,0.21359 -0.17225,0.0965 -0.2825,0.0965 -0.0758,0 -0.1378,-0.0482 -0.0551,-0.0482 -0.0965,-0.13781 -0.0344,-0.0896 -0.0551,-0.22048 -0.0207,-0.13092 -0.0207,-0.28939 0,-0.2136 0.0344,-0.33762 0.0344,-0.12402 0.13091,-0.22049 0.0965,-0.10335 0.33762,-0.22048 0.24116,-0.12403 0.56499,-0.22738 0.32384,-0.10335 0.7028,-0.16536 0.38585,-0.0689 0.79237,-0.0689 0.72347,0 1.23335,0.1447 0.51676,0.1378 0.84749,0.43408 0.33073,0.28939 0.48231,0.75103 0.15159,0.46164 0.15159,1.09554 z m -1.70188,-2.63205 h -0.66146 q -0.4203,0 -0.71658,0.062 -0.29627,0.062 -0.48231,0.18604 -0.18603,0.12402 -0.27561,0.30317 -0.0827,0.17225 -0.0827,0.39963 0,0.38585 0.24116,0.60633 0.24804,0.22049 0.68213,0.22049 0.36518,0 0.66834,-0.18604 0.31006,-0.18603 0.62701,-0.54432 z m 6.93842,2.00504 q 0,0.30317 -0.0413,0.46854 -0.0344,0.15847 -0.0965,0.22737 -0.062,0.062 -0.18603,0.11714 -0.11713,0.0482 -0.2825,0.0827 -0.15847,0.0413 -0.3514,0.062 -0.18603,0.0207 -0.37896,0.0207 -0.51676,0 -0.89572,-0.13091 -0.37896,-0.13092 -0.62701,-0.39963 -0.24805,-0.27561 -0.36518,-0.68902 -0.11713,-0.41341 -0.11713,-0.97841 v -3.14881 h -0.73725 q -0.13092,0 -0.19982,-0.15848 -0.0689,-0.16536 -0.0689,-0.54432 0,-0.19982 0.0138,-0.33762 0.0207,-0.13781 0.0551,-0.2136 0.0344,-0.0827 0.0827,-0.11713 0.0551,-0.0344 0.12402,-0.0344 h 0.73036 v -1.37115 q 0,-0.0689 0.0345,-0.12402 0.0413,-0.0551 0.1378,-0.0896 0.10336,-0.0413 0.26872,-0.0551 0.17225,-0.0207 0.4203,-0.0207 0.25494,0 0.4203,0.0207 0.17226,0.0138 0.26872,0.0551 0.0965,0.0345 0.1378,0.0896 0.0413,0.0551 0.0413,0.12402 v 1.37115 h 1.3367 q 0.0689,0 0.11713,0.0344 0.0551,0.0345 0.0896,0.11713 0.0344,0.0758 0.0482,0.2136 0.0207,0.1378 0.0207,0.33762 0,0.37896 -0.0689,0.54432 -0.0689,0.15848 -0.19982,0.15848 h -1.34359 v 2.88698 q 0,0.50299 0.15848,0.75792 0.15847,0.24805 0.56499,0.24805 0.13781,0 0.24805,-0.0207 0.11024,-0.0276 0.19293,-0.0551 0.0896,-0.0345 0.14469,-0.0551 0.062,-0.0276 0.11024,-0.0276 0.0413,0 0.0758,0.0276 0.0414,0.0207 0.062,0.0965 0.0207,0.0689 0.0344,0.19293 0.0207,0.12402 0.0207,0.31694 z m 6.75927,-2.64583 q 0,0.31695 -0.14469,0.46854 -0.13781,0.15158 -0.38586,0.15158 h -3.74137 q 0,0.39274 0.0896,0.71658 0.0965,0.31695 0.29627,0.54432 0.20671,0.22049 0.52366,0.33762 0.32384,0.11714 0.7717,0.11714 0.45475,0 0.79926,-0.062 0.34451,-0.0689 0.59256,-0.14469 0.25493,-0.0827 0.4203,-0.14469 0.16536,-0.0689 0.26872,-0.0689 0.062,0 0.10335,0.0276 0.0413,0.0207 0.0689,0.0827 0.0276,0.062 0.0344,0.17914 0.0138,0.11025 0.0138,0.2825 0,0.15158 -0.007,0.26183 -0.007,0.10335 -0.0207,0.17914 -0.0138,0.0758 -0.0413,0.13092 -0.0276,0.0482 -0.0758,0.0965 -0.0413,0.0482 -0.24116,0.13091 -0.19981,0.0827 -0.50987,0.16537 -0.31006,0.0758 -0.70969,0.13091 -0.39963,0.062 -0.85438,0.062 -0.81994,0 -1.44005,-0.2067 -0.61323,-0.20671 -1.02664,-0.62701 -0.41341,-0.4203 -0.62012,-1.06109 -0.19981,-0.64079 -0.19981,-1.50206 0,-0.81993 0.21359,-1.4745 0.2136,-0.66146 0.62012,-1.11621 0.40652,-0.46164 0.9853,-0.7028 0.58566,-0.24116 1.31602,-0.24116 0.7717,0 1.31603,0.22738 0.55121,0.22738 0.90261,0.6339 0.3514,0.39963 0.51676,0.95084 0.16537,0.55122 0.16537,1.1989 z m -1.68121,-0.49609 q 0.0207,-0.73036 -0.29627,-1.14377 -0.31006,-0.4203 -0.96463,-0.4203 -0.33073,0 -0.57878,0.12402 -0.24115,0.12402 -0.40652,0.33762 -0.15847,0.20671 -0.24804,0.49609 -0.0827,0.2825 -0.0965,0.60634 z"
       id="text3805-1-6"
       style="font-weight:bold;font-size:14.1111px;font-family:Calibri;-inkscape-font-specification:'Calibri, Bold';fill:#ffffff;stroke:#000000;stroke-width:0.8"
       aria-label="Operate" />
    <path
       d="m 225.71027,73.176784 q 0,1.226453 -0.32384,2.101507 -0.31695,0.868163 -0.9164,1.419378 -0.59944,0.551215 -1.46071,0.813042 -0.85439,0.254937 -2.0395,0.254937 h -2.12907 q -0.22737,0 -0.38585,-0.130914 -0.15158,-0.137803 -0.15158,-0.440972 v -7.772129 q 0,-0.303168 0.15158,-0.434082 0.15848,-0.137803 0.38585,-0.137803 h 2.28754 q 1.19201,0 2.01883,0.282497 0.83371,0.275608 1.39871,0.826823 0.57188,0.544324 0.86816,1.350476 0.29628,0.806152 0.29628,1.86724 z m -1.87413,0.06201 q 0,-0.633897 -0.15159,-1.178222 -0.14469,-0.544324 -0.47542,-0.943955 -0.32384,-0.399631 -0.8406,-0.620117 -0.50988,-0.227376 -1.34359,-0.227376 h -0.91639 v 6.063363 h 0.94395 q 0.74414,0 1.25402,-0.192925 0.50987,-0.192925 0.84749,-0.578776 0.34451,-0.39274 0.50987,-0.971516 0.17226,-0.578775 0.17226,-1.350476 z m 8.93657,1.040418 q 0,0.316948 -0.1447,0.468533 -0.1378,0.151584 -0.38585,0.151584 h -3.74137 q 0,0.39274 0.0896,0.716579 0.0965,0.316949 0.29627,0.544325 0.20671,0.220486 0.52366,0.337619 0.32384,0.117133 0.7717,0.117133 0.45475,0 0.79926,-0.06201 0.34451,-0.0689 0.59256,-0.144694 0.25493,-0.08268 0.4203,-0.144694 0.16536,-0.0689 0.26871,-0.0689 0.062,0 0.10336,0.02756 0.0413,0.02067 0.0689,0.08268 0.0276,0.06201 0.0344,0.179144 0.0138,0.110243 0.0138,0.282498 0,0.151584 -0.007,0.261827 -0.007,0.103353 -0.0207,0.179145 -0.0138,0.07579 -0.0413,0.130913 -0.0276,0.04823 -0.0758,0.09646 -0.0413,0.04823 -0.24116,0.130914 -0.19982,0.08268 -0.50987,0.165364 -0.31006,0.07579 -0.70969,0.130913 -0.39963,0.06201 -0.85439,0.06201 -0.81993,0 -1.44004,-0.206705 -0.61323,-0.206706 -1.02664,-0.627007 -0.41341,-0.420302 -0.62012,-1.061089 -0.19981,-0.640787 -0.19981,-1.50206 0,-0.819932 0.21359,-1.4745 0.2136,-0.661458 0.62012,-1.11621 0.40652,-0.461643 0.98529,-0.702799 0.58567,-0.241157 1.31603,-0.241157 0.7717,0 1.31603,0.227377 0.55121,0.227376 0.90261,0.633897 0.3514,0.39963 0.51676,0.950845 0.16537,0.551215 0.16537,1.198893 z m -1.68121,-0.496093 q 0.0207,-0.73036 -0.29628,-1.143771 -0.31005,-0.420302 -0.96462,-0.420302 -0.33073,0 -0.57878,0.124024 -0.24115,0.124023 -0.40652,0.337619 -0.15847,0.206705 -0.24804,0.496093 -0.0827,0.282498 -0.0965,0.606337 z m 9.29486,0.585665 q 0,0.819932 -0.17914,1.48139 -0.17226,0.654568 -0.50988,1.11621 -0.33762,0.461643 -0.8406,0.709689 -0.50298,0.248047 -1.15066,0.248047 -0.26872,0 -0.49609,-0.05512 -0.22049,-0.04823 -0.43408,-0.151584 -0.20671,-0.110243 -0.41342,-0.268718 -0.2067,-0.158474 -0.42719,-0.37207 v 2.893878 q 0,0.0689 -0.0413,0.124024 -0.0413,0.05512 -0.14469,0.08957 -0.0965,0.04134 -0.26183,0.06201 -0.16536,0.02067 -0.4203,0.02067 -0.25494,0 -0.4203,-0.02067 -0.16537,-0.02067 -0.26872,-0.06201 -0.0965,-0.03445 -0.1378,-0.08957 -0.0413,-0.05512 -0.0413,-0.124024 v -8.585171 q 0,-0.0689 0.0344,-0.117133 0.0344,-0.05512 0.11713,-0.08957 0.0896,-0.03445 0.22738,-0.04823 0.14469,-0.02067 0.35829,-0.02067 0.2067,0 0.3445,0.02067 0.1447,0.01378 0.22738,0.04823 0.0896,0.03445 0.12402,0.08957 0.0345,0.04823 0.0345,0.117133 v 0.723469 q 0.26871,-0.275607 0.52365,-0.482313 0.26183,-0.213595 0.53054,-0.351399 0.26872,-0.144694 0.55122,-0.213596 0.28939,-0.0689 0.61323,-0.0689 0.67523,0 1.15066,0.268718 0.47542,0.261827 0.7717,0.723469 0.30317,0.461643 0.44097,1.074869 0.1378,0.613227 0.1378,1.309135 z m -1.80523,0.124024 q 0,-0.392741 -0.062,-0.751031 -0.0551,-0.365179 -0.19981,-0.647677 -0.13781,-0.282498 -0.37207,-0.447862 -0.22738,-0.172255 -0.57189,-0.172255 -0.17225,0 -0.34451,0.05512 -0.16536,0.04823 -0.34451,0.165364 -0.17225,0.117133 -0.35829,0.303168 -0.18603,0.186035 -0.39274,0.461643 v 2.025714 q 0.36518,0.461643 0.69591,0.71658 0.33073,0.248046 0.68902,0.248046 0.33762,0 0.57189,-0.172254 0.24115,-0.172255 0.39274,-0.447862 0.15158,-0.282498 0.22048,-0.633897 0.0758,-0.3514 0.0758,-0.702799 z m 4.92649,3.038572 q 0,0.0689 -0.0413,0.124023 -0.0413,0.04823 -0.14469,0.08268 -0.0965,0.03445 -0.26183,0.04823 -0.16536,0.02067 -0.4203,0.02067 -0.25493,0 -0.4203,-0.02067 -0.16536,-0.01378 -0.26872,-0.04823 -0.0965,-0.03445 -0.1378,-0.08268 -0.0413,-0.05512 -0.0413,-0.124023 v -9.060595 q 0,-0.0689 0.0413,-0.124023 0.0413,-0.05512 0.1378,-0.08957 0.10336,-0.04134 0.26872,-0.06201 0.16537,-0.02067 0.4203,-0.02067 0.25494,0 0.4203,0.02067 0.16537,0.02067 0.26183,0.06201 0.10335,0.03445 0.14469,0.08957 0.0413,0.05512 0.0413,0.124023 z m 7.94438,-3.135035 q 0,0.785481 -0.2067,1.433159 -0.20671,0.647677 -0.62701,1.11621 -0.4203,0.468532 -1.0542,0.723469 -0.6339,0.254937 -1.48139,0.254937 -0.81993,0 -1.42627,-0.227376 -0.60633,-0.227376 -1.00596,-0.661458 -0.39964,-0.434081 -0.59256,-1.067979 -0.19293,-0.633897 -0.19293,-1.446939 0,-0.785481 0.20671,-1.433158 0.2136,-0.654568 0.6339,-1.11621 0.4203,-0.468533 1.0473,-0.72347 0.6339,-0.254937 1.48139,-0.254937 0.82683,0 1.43316,0.227377 0.60634,0.220485 0.99908,0.654567 0.39963,0.434082 0.59256,1.067979 0.19292,0.633897 0.19292,1.453829 z m -1.78456,0.0689 q 0,-0.454752 -0.0758,-0.833712 -0.0689,-0.385851 -0.24116,-0.668349 -0.17225,-0.282497 -0.46164,-0.440971 -0.2825,-0.158475 -0.71658,-0.158475 -0.38585,0 -0.67523,0.144694 -0.28939,0.137804 -0.47543,0.413411 -0.18603,0.268718 -0.2825,0.654568 -0.0896,0.37896 -0.0896,0.868163 0,0.454753 0.0758,0.840603 0.0758,0.37896 0.24116,0.661458 0.17226,0.282497 0.46164,0.440972 0.28939,0.151584 0.71658,0.151584 0.39274,0 0.68213,-0.137804 0.28939,-0.144694 0.47542,-0.413411 0.18604,-0.268717 0.27561,-0.647677 0.0896,-0.385851 0.0896,-0.875054 z m 6.63525,3.300399 -0.74414,2.177299 q -0.062,0.172254 -0.33762,0.248046 -0.2756,0.07579 -0.80615,0.07579 -0.27561,0 -0.44097,-0.02756 -0.16536,-0.02067 -0.24805,-0.07579 -0.0827,-0.05512 -0.0896,-0.137803 -0.007,-0.08268 0.0413,-0.199816 l 0.81993,-2.060165 q -0.0896,-0.04134 -0.16536,-0.124023 -0.0689,-0.08957 -0.10335,-0.186035 l -2.11529,-5.649953 q -0.0896,-0.241156 -0.0896,-0.36518 0,-0.130913 0.0827,-0.199815 0.0827,-0.07579 0.27561,-0.103353 0.19981,-0.02756 0.52365,-0.02756 0.29628,0 0.46853,0.01378 0.17226,0.0069 0.26872,0.04823 0.0965,0.04134 0.14469,0.130914 0.0482,0.08268 0.0965,0.241156 l 1.44694,4.113441 h 0.0207 l 1.32291,-4.196123 q 0.0413,-0.179145 0.10336,-0.234266 0.0689,-0.06201 0.22048,-0.08957 0.15159,-0.02756 0.53055,-0.02756 0.29627,0 0.4892,0.02756 0.19981,0.02756 0.28939,0.103353 0.0965,0.07579 0.0965,0.206706 0,0.124023 -0.0551,0.296278 z"
       id="text3805-1-3"
       style="font-weight:bold;font-size:14.1111px;font-family:Calibri;-inkscape-font-specification:'Calibri, Bold';fill:#ffffff;stroke:#000000;stroke-width:0.8"
       transform="rotate(-0.29749007)"
       aria-label="Deploy" />
  </g>
</svg>
